<svg xmlns="http://www.w3.org/2000/svg" width="67" height="79.364" viewBox="0 0 67 79.364"><defs><style>.a{fill:#bbb;}</style></defs><g transform="translate(-9.9 -2.5)"><g transform="translate(9.9 2.5)"><path class="a" d="M49.292,23.218a3.566,3.566,0,0,0,3.592-3.592V6.092a3.592,3.592,0,0,0-7.185,0v13.45A3.637,3.637,0,0,0,49.292,23.218Z" transform="translate(-15.792 -2.5)"/><path class="a" d="M25.918,24.865A3.6,3.6,0,0,0,29.26,27.12a4.243,4.243,0,0,0,1.42-.251A3.587,3.587,0,0,0,32.6,22.108L27.422,9.66a3.631,3.631,0,1,0-6.683,2.84Z" transform="translate(-11.633 -3.311)"/><path class="a" d="M66.853,26.872a3.9,3.9,0,0,0,1.42.251,3.6,3.6,0,0,0,3.342-2.256l5.18-12.448a3.686,3.686,0,0,0-1.921-4.762,3.875,3.875,0,0,0-4.845,2.089l-5.18,12.448A3.6,3.6,0,0,0,66.853,26.872Z" transform="translate(-18.901 -3.313)"/><path class="a" d="M76.566,61.823,66.708,41.189A3.6,3.6,0,0,0,63.45,39.1H23.35a3.6,3.6,0,0,0-3.258,2.089L10.234,61.823A3.39,3.39,0,0,0,9.9,63.41V84.3a3.566,3.566,0,0,0,3.592,3.592H73.308A3.566,3.566,0,0,0,76.9,84.3V63.41A3.62,3.62,0,0,0,76.566,61.823ZM25.689,46.368h35.5l6.182,12.949H19.424Z" transform="translate(-9.9 -8.524)"/></g></g></svg>