<svg xmlns="http://www.w3.org/2000/svg" width="28" height="28" viewBox="0 0 28 28"><defs><style>.a{fill:none;}.b{fill:#fff;}</style></defs><path class="a" d="M0,0H28V28H0Z"/><path class="b" d="M14,10.333h4.889a1.222,1.222,0,0,0,0-2.444H14a1.222,1.222,0,0,0,0,2.444Zm0,4.889h4.889a1.222,1.222,0,0,0,0-2.444H14a1.222,1.222,0,0,0,0,2.444Zm0,4.889h4.889a1.222,1.222,0,0,0,0-2.444H14a1.222,1.222,0,0,0,0,2.444ZM7.889,7.889h2.444v2.444H7.889Zm0,4.889h2.444v2.444H7.889Zm0,4.889h2.444v2.444H7.889ZM23.778,3H4.222A1.226,1.226,0,0,0,3,4.222V23.778A1.226,1.226,0,0,0,4.222,25H23.778A1.226,1.226,0,0,0,25,23.778V4.222A1.226,1.226,0,0,0,23.778,3ZM22.556,22.556H5.444V5.444H22.556Z" transform="translate(0 0)"/></svg>