<svg xmlns="http://www.w3.org/2000/svg" xmlns:xlink="http://www.w3.org/1999/xlink" width="48" height="48" viewBox="0 0 48 48"><defs><style>.a{fill:none;}.b{fill:url(#a);}</style><linearGradient id="a" x1="0.5" x2="0.5" y2="1" gradientUnits="objectBoundingBox"><stop offset="0" stop-color="#50d5b7"/><stop offset="1" stop-color="#067d68"/></linearGradient></defs><path class="a" d="M0,0H48V48H0Z"/><path class="b" d="M39.4,14.667H8.6a6.8,6.8,0,0,0-6.6,7V31a4.553,4.553,0,0,0,4.4,4.667h4.4v4.667A4.553,4.553,0,0,0,15.2,45H32.8a4.553,4.553,0,0,0,4.4-4.667V35.667h4.4A4.553,4.553,0,0,0,46,31V21.667A6.8,6.8,0,0,0,39.4,14.667ZM30.6,40.333H17.4A2.276,2.276,0,0,1,15.2,38V28.667H32.8V38A2.276,2.276,0,0,1,30.6,40.333ZM39.4,24a2.337,2.337,0,1,1,2.2-2.333A2.276,2.276,0,0,1,39.4,24ZM35,3H13a2.276,2.276,0,0,0-2.2,2.333V10A2.276,2.276,0,0,0,13,12.333H35A2.276,2.276,0,0,0,37.2,10V5.333A2.276,2.276,0,0,0,35,3Z"/></svg>