<svg xmlns="http://www.w3.org/2000/svg" width="28" height="28" viewBox="0 0 28 28"><defs><style>.a{fill:none;}.b{fill:#fff;}</style></defs><path class="a" d="M0,0H28V28H0Z"/><path class="b" d="M17.373,3H9.627a1.177,1.177,0,0,0-.817.338L3.338,8.81A1.177,1.177,0,0,0,3,9.627v7.735a1.2,1.2,0,0,0,.338.828L8.8,23.65a1.186,1.186,0,0,0,.828.35h7.735a1.2,1.2,0,0,0,.828-.338l5.46-5.46a1.155,1.155,0,0,0,.338-.828V9.627A1.2,1.2,0,0,0,23.65,8.8l-5.46-5.46A1.177,1.177,0,0,0,17.373,3ZM13.5,19.683a1.517,1.517,0,1,1,1.517-1.517A1.514,1.514,0,0,1,13.5,19.683Zm0-5.017A1.17,1.17,0,0,1,12.333,13.5V8.833a1.167,1.167,0,1,1,2.333,0V13.5A1.17,1.17,0,0,1,13.5,14.667Z" transform="translate(0.5 0.5)"/></svg>