<svg xmlns="http://www.w3.org/2000/svg" width="28" height="28" viewBox="0 0 28 28"><defs><style>.a{fill:none;}.b{fill:#fff;}</style></defs><path class="a" d="M0,0H28V28H0Z"/><path class="b" d="M11.2,21.609V15.776h4.667v5.833a1.17,1.17,0,0,0,1.167,1.167h3.5A1.17,1.17,0,0,0,21.7,21.609V13.443h1.983a.579.579,0,0,0,.385-1.015L14.315,3.642a1.176,1.176,0,0,0-1.563,0L3,12.428a.581.581,0,0,0,.385,1.015H5.366v8.167a1.17,1.17,0,0,0,1.167,1.167h3.5A1.17,1.17,0,0,0,11.2,21.609Z" transform="translate(0.467 0.558)"/></svg>