<svg xmlns="http://www.w3.org/2000/svg" width="24" height="23.955" viewBox="0 0 24 23.955">
    <defs>
        <style>
            .cls-1{fill:#2a2e43}
        </style>
    </defs>
    <g id="noun_Save_2209758" transform="translate(-41.2 -41.5)">
        <g id="Group_3891" transform="translate(41.2 41.5)">
            <path id="Path_7067" d="M65.2 258.241v5.312a1.209 1.209 0 0 1-.038.295 1.141 1.141 0 0 1-1.111.914h-21.71a1.137 1.137 0 0 1-1.126-1.013.9.9 0 0 1-.015-.2v-5.312a1.134 1.134 0 0 1 2.267 0v4.254h19.474v-4.254a1.133 1.133 0 0 1 1.935-.8 1.2 1.2 0 0 1 .324.804z" class="cls-1" transform="translate(-41.2 -240.808)"/>
            <path id="Path_7068" d="M121.951 53.613l-5.569 5.569c-.008.015-.023.023-.03.03a1.312 1.312 0 0 1-.733.37c-.023 0-.045.008-.068.008a.821.821 0 0 1-.136.008l-.128-.008c-.023 0-.045-.008-.068-.008a1.289 1.289 0 0 1-.733-.37l-.03-.03-5.569-5.569a1.325 1.325 0 1 1 1.874-1.874l3.348 3.348V42.822a1.329 1.329 0 0 1 1.321-1.322 1.352 1.352 0 0 1 .937.385 1.306 1.306 0 0 1 .385.937v12.265l3.348-3.348a1.332 1.332 0 0 1 1.874 0 1.353 1.353 0 0 1-.023 1.874z" class="cls-1" transform="translate(-103.414 -41.5)"/>
        </g>
    </g>
</svg>
