<svg xmlns="http://www.w3.org/2000/svg" width="28" height="28" viewBox="0 0 28 28">
    <path fill="none" d="M0 0h28v28H0z"/>
    <path fill="#fff" d="M13.5 3a1.17 1.17 0 0 0-1.167 1.167V13.5a1.167 1.167 0 1 0 2.333 0V4.167A1.17 1.17 0 0 0 13.5 3zm6 3.337a1.155 1.155 0 0 0-.012 1.622 8.008 8.008 0 0 1 2.182 5.332 8.265 8.265 0 0 1-8.062 8.365A8.157 8.157 0 0 1 7.516 7.947a1.155 1.155 0 1 0-1.68-1.587A10.406 10.406 0 0 0 3 13.2a10.61 10.61 0 0 0 10.162 10.788A10.5 10.5 0 0 0 24 13.488a10.372 10.372 0 0 0-2.823-7.128 1.173 1.173 0 0 0-1.677-.023z" transform="translate(.499 .5)"/>
</svg>
