<svg xmlns="http://www.w3.org/2000/svg" width="147" height="35.806" viewBox="0 0 147 35.806"><defs><style>.a,.b{fill:#fff;}.b{stroke:#fff;}.c{isolation:isolate;}</style></defs><g transform="translate(-54 -87.099)"><g transform="translate(54 87.099)"><g transform="translate(4.945 4.945)"><path class="a" d="M1261.742,1196.774h10.1q-.03.264-.071.525Z" transform="translate(-1246.122 -1182.401)"/><path class="a" d="M1261.742,1196.774l9.86,1.386q-.057.255-.125.506Z" transform="translate(-1246.122 -1182.401)"/><path class="a" d="M1261.742,1196.774l9.482,2.719q-.084.245-.178.485Z" transform="translate(-1246.122 -1182.401)"/><path class="a" d="M1261.742,1196.774l8.967,3.992q-.109.233-.227.461Z" transform="translate(-1246.122 -1182.401)"/><path class="a" d="M1261.742,1196.774l8.321,5.2q-.133.22-.275.434Z" transform="translate(-1246.122 -1182.401)"/><path class="a" d="M1261.742,1196.774l7.548,6.334q-.157.206-.322.405Z" transform="translate(-1246.122 -1182.401)"/><path class="a" d="M1261.742,1196.774l6.652,7.388q-.18.19-.367.373Z" transform="translate(-1246.122 -1182.401)"/><path class="a" d="M1261.742,1196.774l5.635,8.354q-.2.173-.413.337Z" transform="translate(-1246.122 -1182.401)"/><path class="a" d="M1261.742,1196.774l4.5,9.219q-.225.153-.458.3Z" transform="translate(-1246.122 -1182.401)"/><path class="a" d="M1261.742,1196.774l3.239,9.969q-.248.129-.5.248Z" transform="translate(-1246.122 -1182.401)"/><path class="a" d="M1261.742,1196.774l1.867,10.586q-.269.1-.543.193Z" transform="translate(-1246.122 -1182.401)"/><path class="a" d="M1251.772,1196.774l.386,11.049q-.288.071-.581.129Z" transform="translate(-1236.152 -1182.401)"/><path class="a" d="M1169.537,1196.774l-1.191,11.336q-.3.036-.613.058Z" transform="translate(-1153.917 -1182.401)"/><path class="a" d="M1083.605,1196.774l-2.849,11.425q-.321,0-.638-.022Z" transform="translate(-1067.985 -1182.401)"/><path class="a" d="M995.254,1196.774l-4.563,11.3q-.329-.047-.652-.11Z" transform="translate(-979.634 -1182.401)"/><path class="a" d="M906.241,1196.774l-6.305,10.921q-.33-.1-.652-.207Z" transform="translate(-890.62 -1182.401)"/><path class="a" d="M818.709,1196.774l-8.035,10.284q-.323-.146-.636-.309Z" transform="translate(-803.089 -1182.401)"/><path class="a" d="M735.084,1196.774l-9.706,9.373q-.307-.2-.6-.413Z" transform="translate(-719.464 -1182.401)"/><path class="a" d="M657.994,1196.774l-11.269,8.187q-.281-.249-.547-.514Z" transform="translate(-642.374 -1182.401)"/><path class="a" d="M590.2,1196.774l-12.67,6.737q-.245-.3-.473-.608Z" transform="translate(-574.576 -1182.401)"/><path class="a" d="M534.495,1196.774l-13.855,5.043q-.2-.339-.378-.692Z" transform="translate(-518.875 -1182.401)"/><path class="a" d="M493.555,1196.774l-14.771,3.14q-.143-.374-.264-.758Z" transform="translate(-477.935 -1182.401)"/><path class="a" d="M469.6,1196.774l-15.368,1.075q-.08-.4-.135-.8Z" transform="translate(-453.975 -1182.401)"/><path class="a" d="M448,1097.35q0-.223.007-.443l15.613,1.917-15.615-1.092q-.005-.19-.006-.382Z" transform="translate(-448 -1084.451)"/><path class="a" d="M470.125,986.618l-15.493-3.293q.059-.414.143-.82Z" transform="translate(-454.505 -972.245)"/><path class="a" d="M495.647,877.743l-14.993-5.457q.129-.4.284-.787Z" transform="translate(-480.027 -863.37)"/><path class="a" d="M540.082,775.935l-14.124-7.51q.2-.371.416-.727Z" transform="translate(-524.462 -761.562)"/><path class="a" d="M601.961,684.57l-12.913-9.382q.257-.33.534-.643Z" transform="translate(-586.341 -670.198)"/><path class="a" d="M679.04,606.509l-11.4-11.013q.307-.28.632-.539Z" transform="translate(-663.42 -592.136)"/><path class="a" d="M768.551,544.038,758.9,531.683q.346-.221.707-.42Z" transform="translate(-752.931 -529.665)"/><path class="a" d="M867.352,498.8l-7.719-13.369q.373-.157.758-.291Z" transform="translate(-851.732 -484.422)"/><path class="a" d="M972.018,471.624l-5.67-14.034q.387-.091.783-.158Z" transform="translate(-956.398 -457.251)"/><path class="a" d="M1078.992,462.384l-3.577-14.345q.388-.026.783-.028Z" transform="translate(-1063.372 -448.011)"/><path class="a" d="M1184.858,465.263l-1.5-14.316q.383.036.759.094Z" transform="translate(-1169.238 -450.891)"/><path class="a" d="M1261.742,482.926l.488-13.971q.363.093.717.206Z" transform="translate(-1246.122 -468.553)"/><path class="a" d="M1261.742,515.289l2.352-13.337q.334.143.657.3Z" transform="translate(-1246.122 -500.917)"/><path class="a" d="M1261.742,560.282l4.047-12.457q.3.184.587.385Z" transform="translate(-1246.122 -545.909)"/><path class="a" d="M1261.742,615.574l5.548-11.375q.26.218.509.448Z" transform="translate(-1246.122 -601.201)"/><path class="a" d="M1261.742,678.847l6.837-10.136q.22.243.427.5Z" transform="translate(-1246.122 -664.475)"/><path class="a" d="M1261.742,747.969l7.909-8.784q.179.26.346.529Z" transform="translate(-1246.122 -733.596)"/><path class="a" d="M1261.742,821.041l8.763-7.354q.139.271.266.55Z" transform="translate(-1246.122 -806.668)"/><path class="a" d="M1261.742,896.425l9.407-5.878q.1.277.189.559Z" transform="translate(-1246.122 -882.052)"/><path class="a" d="M1261.742,972.724l9.849-4.385q.064.278.116.56Z" transform="translate(-1246.122 -958.351)"/><path class="a" d="M1261.742,1048.78l10.1-2.9q.03.275.049.553Z" transform="translate(-1246.122 -1034.408)"/><path class="a" d="M1261.742,1123.682l10.178-1.431q0,.272-.013.541Z" transform="translate(-1246.122 -1109.31)"/></g><path class="a" d="M226.24,243.4A17.156,17.156,0,1,1,243.4,260.552,17.156,17.156,0,0,1,226.24,243.4Zm4.3,0A12.856,12.856,0,1,0,243.4,230.54,12.856,12.856,0,0,0,230.54,243.4Z" transform="translate(-225.552 -225.552)"/><path class="a" d="M190.4,208.244a17.844,17.844,0,1,1,17.844,17.844A17.844,17.844,0,0,1,190.4,208.244Zm.43,0a17.414,17.414,0,1,0,17.414-17.414,17.414,17.414,0,0,0-17.414,17.414Z" transform="translate(-190.4 -190.4)"/><g transform="translate(6.347 9.66)"><path class="b" d="M544.032,697.324a.337.337,0,0,0-.106-.164l-.014-.014a.307.307,0,0,1-.092-.133.248.248,0,0,1,0-.067.2.2,0,0,0-.015-.108.872.872,0,0,0-.1-.141.641.641,0,0,1-.11-.172,1.037,1.037,0,0,1-.045-.236,1.327,1.327,0,0,0-.031-.193,3.423,3.423,0,0,1-.135-.737s0-.025,0-.028l0-.011.017-.051-.054.031c-.1.057-.232.131-.373.2l-.016.008a.228.228,0,0,1-.076.028c-.006,0-.019-.01-.038-.03l-.012-.012-.072-.066a3.612,3.612,0,0,0-.317-.27.366.366,0,0,0-.153-.077c-.07-.013-.14-.029-.2-.043a5.027,5.027,0,0,1-.585-.164l-.013,0a.776.776,0,0,1-.127-.055l-.016-.009-3.1,2.141-1.122,1.119-1.029.218v-.009l-.642.136-.005,0a.313.313,0,0,1-.076-.089c-.023-.049.01-.1.038-.146l.006-.01a.141.141,0,0,0,.029-.1.093.093,0,0,0-.033-.045.1.1,0,0,1-.027-.033.178.178,0,0,1,0-.1.141.141,0,0,0-.027-.148.306.306,0,0,0-.156-.065.461.461,0,0,1-.106-.032h0l-.081-.027-.095-.031-.029-.008a.413.413,0,0,1-.054-.017.206.206,0,0,1-.073-.065l-.012-.015c-.02-.025-.056-.069-.1-.063s-.089.008-.128.01c-.019,0-.023,0-.032-.02a.105.105,0,0,0-.016-.023.233.233,0,0,0-.06-.042c-.03-.017-.057-.031-.068-.062a.226.226,0,0,1-.008-.039.114.114,0,0,0-.057-.1.235.235,0,0,0-.07-.019.255.255,0,0,1-.052-.013.048.048,0,0,1-.031-.031.159.159,0,0,0-.009-.017.082.082,0,0,0-.084-.039q0-.035-.005-.07c0-.061-.01-.125-.012-.187a.016.016,0,0,0-.007-.014l-4.14-3.072,0,0h-.049l-1.029.007h-.007c-.011,0-.018.009-.017.018l.51,6.69a.009.009,0,0,0,0,0,.013.013,0,0,0,.005.008l.152.122-.107.64h-2.584a.161.161,0,0,1,0-.05.166.166,0,0,0,0-.056c0-.018-.03-.029-.052-.021a.072.072,0,0,0-.048.06.429.429,0,0,0,0,.061c0,.009,0,.021,0,.031h-.022l-.041,0a.342.342,0,0,0-.117.019.285.285,0,0,0-.036.018.138.138,0,0,1-.064.023c-.029,0-.058,0-.1,0h-.033c-.075,0-.148-.006-.235-.014l-.032,0a.451.451,0,0,1-.1-.014.311.311,0,0,0-.091-.011.024.024,0,0,0-.023.014.167.167,0,0,0-.008.032.1.1,0,0,1-.015.044l-.015.019a.182.182,0,0,0-.023.031.269.269,0,0,1-.09.108.19.19,0,0,0-.064-.153.473.473,0,0,0-.1-.076.286.286,0,0,1-.085-.09l-.022-.03-.006-.008a.12.12,0,0,0-.091-.063.089.089,0,0,0-.03.005.164.164,0,0,0-.082.1.059.059,0,0,0-.075.026.175.175,0,0,0-.014.056.332.332,0,0,1-.044.129.2.2,0,0,0-.012.134.283.283,0,0,1,0,.087.225.225,0,0,1-.062.111l-.007.008c-.015.016-.031.034-.048.049a.1.1,0,0,1-.078.019h0a.088.088,0,0,0-.035-.029c-.019-.01-.039-.018-.058-.026a.475.475,0,0,1-.077-.037.382.382,0,0,1-.1-.095.579.579,0,0,0-.083-.083.533.533,0,0,1-.083-.084.566.566,0,0,1-.081-.218l0-.01a.023.023,0,0,0-.022-.015c-.082-.005-.142-.058-.182-.163-.009-.024-.017-.049-.024-.073a.506.506,0,0,0-.067-.156.183.183,0,0,0-.142-.074.148.148,0,0,0-.035,0c-.018,0-.032-.011-.047-.027a.071.071,0,0,0-.049-.03.047.047,0,0,0-.033.015.125.125,0,0,0-.014.016l-.005.006a.171.171,0,0,1-.037-.056l-.022-.042c-.011-.022-.023-.045-.036-.067a.641.641,0,0,0-.169-.182l-.008-.006a.3.3,0,0,0-.141-.073.055.055,0,0,0-.031.008l-.016.013a.051.051,0,0,1-.045.018.577.577,0,0,1-.063-.012l-.015,0a1.084,1.084,0,0,1-.182-.061c-.015-.007-.035,0-.036.016s-.026.035-.049.035a.053.053,0,0,1-.03-.009.033.033,0,0,0-.035,0,.014.014,0,0,0,0,.013.038.038,0,0,1-.012.038.171.171,0,0,1-.106.023l-.06,0a.291.291,0,0,0-.162.034l-.009,0a.226.226,0,0,1-.087.03.244.244,0,0,1-.047,0l-.024,0a.113.113,0,0,0-.064.011l-.015-.018a.121.121,0,0,0-.088-.06.129.129,0,0,0-.133.081.216.216,0,0,0-.012.082c0,.051,0,.09-.073.119-.027.011-.035.039-.043.064a.1.1,0,0,1-.016.037.025.025,0,0,0-.026.012.132.132,0,0,0-.009.051c0,.005,0,.01,0,.015s0,.032,0,.047,0,.053-.007.079a.167.167,0,0,1-.032.094.305.305,0,0,0-.045.1l-.01.032a.672.672,0,0,1-.088.155l-.026.039c-.046.069-.09.132-.134.193a.658.658,0,0,1-.068.079.391.391,0,0,1-.127.073l-.012.005c-.016.007-.032.012-.05.018a.382.382,0,0,0-.078.031.042.042,0,0,0-.021.04.037.037,0,0,0,.025.03.178.178,0,0,0,.067.01h0a.26.26,0,0,1,.124.024.238.238,0,0,1,.1.11c.008.014.016.029.025.042a.618.618,0,0,1,.056.116c.008.02.016.04.025.06a.143.143,0,0,0,.032.039l.011.011a.173.173,0,0,1,.036.109.655.655,0,0,1,0,.069v.009c0,.007,0,.013,0,.018s.01.018.024.018h.007a.244.244,0,0,0,.016.089.028.028,0,0,0,.04.008.3.3,0,0,1,.043-.028.287.287,0,0,0,.051-.035.123.123,0,0,0,.017-.02.215.215,0,0,0,.011.034.029.029,0,0,0-.025,0,.19.19,0,0,0-.091.085.048.048,0,0,0,.007.049.038.038,0,0,0,.038.013.081.081,0,0,0,.021-.007.1.1,0,0,0-.03.083l-.006,0a.691.691,0,0,0-.074.055c-.019.016-.039.032-.061.047s-.067.045-.045.087l.009.017a.151.151,0,0,1,.023.062c0,.01,0,.02,0,.03s0,.025,0,.038a.061.061,0,0,0,.006.022h0l0,0a.027.027,0,0,0,.008.007.328.328,0,0,1-.014.144.406.406,0,0,0-.017.129.022.022,0,0,0,.024.018h.02l0,0a.093.093,0,0,0-.023.027.1.1,0,0,0,0,.064c0,.008,0,.015,0,.023s.022.023.036.015a.147.147,0,0,0,.03-.019.21.21,0,0,1-.086.055c-.012,0-.019.013-.016.022a.269.269,0,0,0,.031.061.162.162,0,0,1,.034.081h0a.014.014,0,0,0,0,.006v0h0a.04.04,0,0,0,.029.015h.009l.038,0a.05.05,0,0,1,.05.034l.005.009a.1.1,0,0,0,.072.039.084.084,0,0,0,.069-.022.082.082,0,0,0,.015-.017l0,0a.027.027,0,0,0,.025.009l-.018.018-.018.017c-.023.02-.049.043-.035.076a.08.08,0,0,0,.034.031l0,0a.254.254,0,0,1,.061.049.133.133,0,0,0,.113.036.16.16,0,0,0,.107-.05l.027-.027.041-.016.024,0a.05.05,0,0,1-.018.036.069.069,0,0,1-.044.015.07.07,0,0,0-.044.017.161.161,0,0,0-.04.054.039.039,0,0,0-.024-.02.074.074,0,0,0-.031,0l-.013,0h-.049v0a.033.033,0,0,0-.02.017c-.008.018.008.041.023.061a.094.094,0,0,1,.015.025.024.024,0,0,0,.024.018.028.028,0,0,0,.012,0,.194.194,0,0,0,.048-.032.039.039,0,0,0,.04.019.116.116,0,0,0,.047-.021.067.067,0,0,1,.029-.013s.007,0,.016.008a.06.06,0,0,0,.043.016.3.3,0,0,0,.134-.055l.007,0,.031-.021a.305.305,0,0,1,.079-.044.08.08,0,0,1,.032,0l.025.005a.258.258,0,0,0,.1-.014.825.825,0,0,1,.085-.021.183.183,0,0,1,0,.02.114.114,0,0,0,0,.043.063.063,0,0,0,.015.029c-.023,0-.023,0-.026-.016a.141.141,0,0,0-.006-.02.028.028,0,0,0-.035-.011.127.127,0,0,1-.1.011.139.139,0,0,0-.059-.008.145.145,0,0,0-.084.047l-.016.014-.012.01c-.027.02-.06.046-.057.073s.012.025.031.035.011.007.011.01-.025.019-.044.028-.056.027-.06.045a.025.025,0,0,0,.009.024.074.074,0,0,0,.052.022.175.175,0,0,0,.106-.058.026.026,0,0,0,.023-.005.1.1,0,0,0,.017-.022l0,0,0-.006.008-.014a.031.031,0,0,0,.039,0,.1.1,0,0,0,.014-.036l0-.011a.032.032,0,0,0,.027,0l0,0a.018.018,0,0,0,.005.009.029.029,0,0,0,.03,0l.009,0c.008,0,.015.01.022.019l.006.007a.06.06,0,0,0-.028-.006h0a.032.032,0,0,0-.031.021.044.044,0,0,0-.023-.006.135.135,0,0,0-.056.019.02.02,0,0,0-.011.015.016.016,0,0,0,.007.015.181.181,0,0,1-.036,0h-.005a.094.094,0,0,0-.047.028l-.013.011a.125.125,0,0,0-.042.109c0,.007,0,.014,0,.021a.015.015,0,0,0,.006.013.029.029,0,0,0,.031,0,.432.432,0,0,0,.076-.055l.005,0a.027.027,0,0,0,.021.008l-.018.01a.153.153,0,0,0-.058.046.025.025,0,0,0,0,.027.09.09,0,0,0,.055.028l.021,0c.028.005.07.012.073.031a.059.059,0,0,1-.006.026.108.108,0,0,0-.006.02.054.054,0,0,0,.009.05.051.051,0,0,0,.032.013h0a.087.087,0,0,0,.042-.015l0,0a.15.15,0,0,1,.03-.016v0a.1.1,0,0,1-.02.034.078.078,0,0,0-.024.064.039.039,0,0,0,.039.034.056.056,0,0,0,.019,0c.006.011.007.019-.007.03a.037.037,0,0,0-.014.027v0c0,.014.015.028.018.031a.148.148,0,0,1,.047.061.022.022,0,0,0,.022.014.024.024,0,0,0,.025-.017.251.251,0,0,0,0-.07c0-.015,0-.016.009-.019a.044.044,0,0,0,.021-.014.052.052,0,0,0,.015-.035.082.082,0,0,0,0-.011l.012,0,.015-.009.007,0h0l0,.005a.166.166,0,0,0-.03.038.137.137,0,0,0-.007.065.025.025,0,0,0,.032.017l-.006.02,0,.012s-.013.034,0,.052a.035.035,0,0,0,.027.014.056.056,0,0,0,.038-.021c0,.013,0,.028,0,.044a.015.015,0,0,0,.006.013.03.03,0,0,0,.036,0,.291.291,0,0,0,.051-.069c0,.008,0,.015-.006.022a.391.391,0,0,1-.066.161.015.015,0,0,0,0,.018.028.028,0,0,0,.022.01.074.074,0,0,0,.04-.01.182.182,0,0,1,.012.039.1.1,0,0,0,.005.019.079.079,0,0,0,.016.02l0,0a.09.09,0,0,1,.018.052l0,.012c0,.014.005.028.008.042s0,.023.007.034a.021.021,0,0,0,.023.015.03.03,0,0,0,.017,0,.053.053,0,0,1,.028-.012c.01,0,.019.011.028.022a.142.142,0,0,0,.018.019.031.031,0,0,0,.03,0,.154.154,0,0,1,.013.039.023.023,0,0,0,.024.015.025.025,0,0,0,.017-.006l.006-.008a.063.063,0,0,0,.007.011.038.038,0,0,0,.019.024.03.03,0,0,0,.037,0,.015.015,0,0,0,0-.018l-.008-.012h0l.021-.007h0a.031.031,0,0,0,.01.014c-.035.042.019.082.049.1a.289.289,0,0,1,.042.042.381.381,0,0,0,.038.038.054.054,0,0,0,.044.008h0a.1.1,0,0,0,0,.03.027.027,0,0,0,.035.011.037.037,0,0,0-.009.036.031.031,0,0,0,.031.019.123.123,0,0,0,.053-.017l.008-.005a.16.16,0,0,1-.012.021.189.189,0,0,0-.014.028l-.01.026a.265.265,0,0,1-.028.059.022.022,0,0,0,0,.028.067.067,0,0,0,.084.01l.016-.011,0,0a.062.062,0,0,0,0,.047.076.076,0,0,1,0,.011c0,.017.007.045.04.047a.084.084,0,0,0,.027,0h.011s0,.013,0,.02a.4.4,0,0,0,0,.087.026.026,0,0,0,.037.015l.018-.013.011-.008s0,0,0,0a.1.1,0,0,1,0,.024.069.069,0,0,0,0,.044.028.028,0,0,0,.046.014l0,0,0,0a.142.142,0,0,0-.017.017.031.031,0,0,0-.005.017v.006l.007,0,0,0a.141.141,0,0,0-.044.024.027.027,0,0,0-.021.02.062.062,0,0,0,.021.062.267.267,0,0,0,.162.047.126.126,0,0,0,.009.018.18.18,0,0,0-.094.038c-.032.028-.019.071-.008.109a.166.166,0,0,1,.009.045.185.185,0,0,0,.05.123.045.045,0,0,0,.044.005l.008,0,0,.008a.033.033,0,0,0,0,.027.371.371,0,0,0-.067-.023.082.082,0,0,0-.072.011.039.039,0,0,0-.01.04.328.328,0,0,0,.033.075v0a.268.268,0,0,1,.021.057.3.3,0,0,0,.02.054.037.037,0,0,0,.035.02.119.119,0,0,0,.06-.023.087.087,0,0,1,.034-.016c.009,0,.018.012.026.034l0,.009c.053.122.046.155.038.164s-.008,0-.016,0a.04.04,0,0,0-.041.013.022.022,0,0,0,0,.028l.008.011a.455.455,0,0,1,.036.053.041.041,0,0,0,.041.014l.012,0a.049.049,0,0,0,.01.022.181.181,0,0,0,.06.042l.016.008h-.014a.325.325,0,0,0-.183.061c-.019.013-.019.034,0,.062a.055.055,0,0,0,.051.021h.019l.03,0a.327.327,0,0,1,.047.007.1.1,0,0,1,.054.044l.006.008.007.009c.018.024.046.062.089.056a.062.062,0,0,0,.038-.02v0a.032.032,0,0,0,.024.023.674.674,0,0,1,.131.061.712.712,0,0,0,.127.06.641.641,0,0,1,.1.046l.036.019c.021.01.042.019.063.027a.376.376,0,0,1,.1.052l.017.015a.216.216,0,0,0,.082.05.045.045,0,0,0,0,.009.165.165,0,0,0,.028.049l.012.017a.132.132,0,0,1,.014.039c0,.008,0,.016.007.024.014.042.066.081.157.117a.326.326,0,0,1,.038.02.36.36,0,0,0,.046.024.245.245,0,0,1,.052.031l.026.018a.486.486,0,0,1,.072.056.118.118,0,0,0,.022.015l.009.005a.052.052,0,0,1,0,.02v.007a.041.041,0,0,0,.013.042l.018.02.031.033a.172.172,0,0,0,.067.036l.016.006a.509.509,0,0,0,.092.028l.018,0c.03,0,.034.007.036.014a.071.071,0,0,1,0,.009.055.055,0,0,0,.021.036l.017.013.013.01a.2.2,0,0,0,.043.026l.021.011a.139.139,0,0,1,.028.026l.015.016a.512.512,0,0,0,.04.034.228.228,0,0,1,.055.053.757.757,0,0,0,.094.116l.008.008.037.038a.766.766,0,0,1,.074.083l.014.021a.277.277,0,0,0,.027.038.193.193,0,0,0,.023.021.139.139,0,0,1,.019.018,1.017,1.017,0,0,0,.09.095l.031.03c.016.015.032.031.047.048a.321.321,0,0,0,.079.07.3.3,0,0,1,.042.031.456.456,0,0,0,.036.028c.023.015.043.031.064.048l.022.017a.418.418,0,0,0,.083.046.287.287,0,0,1,.083.05.5.5,0,0,0,.136.084l.028.014a.257.257,0,0,1,.036.024.382.382,0,0,0,.036.024.2.2,0,0,0,.034.015.149.149,0,0,1,.025.011l.013.009a.165.165,0,0,0,.056.029l.029.006.027.006.036.012.009,0,.021.01.019.01a.2.2,0,0,0,.062.017.055.055,0,0,1,.017.007l.01.005.02.007.013.005.009.007.011.008a.192.192,0,0,0,.026.025l.009.006.005,0,0,0,.01.01a.1.1,0,0,0,.057.015h.07l.018,0a.049.049,0,0,0,.033-.011v0l0,.005h.008a.181.181,0,0,0,.089-.024.451.451,0,0,0,.068-.059l.03-.029a.156.156,0,0,1,.062-.025.229.229,0,0,0,.065-.023.479.479,0,0,0,.082-.069l.018-.017a.229.229,0,0,1,.1-.033.525.525,0,0,0,.052-.012c.053-.016.1-.036.155-.055a1.948,1.948,0,0,1,.187-.065.5.5,0,0,0,.136-.066.474.474,0,0,1,.129-.063.754.754,0,0,1,.176-.031h.031c.044,0,.085,0,.129-.006l.056-.009a.408.408,0,0,1,.1-.01h0a.04.04,0,0,0,.038-.033.08.08,0,0,0,.068.022l.045,0,.022,0a.024.024,0,0,0,.023-.015.016.016,0,0,0-.009-.019.105.105,0,0,1,.01-.027.1.1,0,0,0,.008-.023c0-.01.012-.02.025-.029l0,.005a.016.016,0,0,0,0,.016.027.027,0,0,0,.018.007h.011c.024,0,.087,0,.1-.041h0l.005,0,.014.01a.066.066,0,0,0,.057,0,.052.052,0,0,0,.015-.017c.005-.008.008-.011.017-.012s.04,0,.06,0a.269.269,0,0,0-.058.021l-.005,0a.473.473,0,0,1-.119.028l-.042.007h0c-.041.007-.09.018-.1.039a.021.021,0,0,0,0,.025.043.043,0,0,0,.033.011h.012l.079-.015c.028-.006.057-.012.086-.016l.074-.012a2.322,2.322,0,0,1,.235-.03.2.2,0,0,1,.087.021.238.238,0,0,0,.087.022.12.12,0,0,0,.039-.007.139.139,0,0,1,.072.015.27.27,0,0,0,.048.015.431.431,0,0,0,.079,0,.423.423,0,0,1,.07,0h0a.028.028,0,0,0,.02-.007.015.015,0,0,0,0-.016c-.007-.019,0-.027.016-.039l.014-.013a.045.045,0,0,0,.008-.03v0a.039.039,0,0,1,.018-.033c-.011.03-.02.064.013.085.01.007.009.019.006.037s-.007.042.02.054a.1.1,0,0,0,.1-.021l.009-.009c.009-.01.033-.037.046-.037s.007,0,.01.01.009.021.015.038l0,.01.013,0h0a.189.189,0,0,1-.012.029.013.013,0,0,0,0,.014.02.02,0,0,0,.011.008l0,0,.183.043c.045.011.082.021.12.033a.145.145,0,0,1,.064.055.273.273,0,0,0,.035.039l.01.009a.22.22,0,0,0,.1.061h.013a.244.244,0,0,0,.117-.044,1.228,1.228,0,0,0,.162-.13.274.274,0,0,1,.13-.056l.031-.008.013,0a.742.742,0,0,0,.179-.064.339.339,0,0,0,.045-.033.133.133,0,0,1,.112-.043l.031.007a.167.167,0,0,0,.1,0,.361.361,0,0,0,.115-.075c.014-.012.028-.024.042-.034a1.513,1.513,0,0,1,.4-.228.817.817,0,0,0,.105-.047c.024-.012.048-.024.074-.035a.283.283,0,0,1,.1-.015h.033a.783.783,0,0,0,.078,0,.023.023,0,0,0,.022-.015.109.109,0,0,0,.048.01.85.85,0,0,0,.148-.017.1.1,0,0,0,.071-.07l.005-.011a1.847,1.847,0,0,1,.126-.2.331.331,0,0,0,.1.017l.038,0a.116.116,0,0,0,.065-.034.085.085,0,0,1,.06-.019l.028,0a.126.126,0,0,0,.057-.024h.012a.859.859,0,0,0,.114-.027l.049-.013a.857.857,0,0,1,.116-.017l.062-.007.041-.006c.1-.014.2-.029.3-.035l.009,0a.061.061,0,0,0,.017.007.285.285,0,0,0,.116,0,.315.315,0,0,1,.1,0,.249.249,0,0,0,.118,0l.02,0,.025,0a.044.044,0,0,0,.038-.033l0,0,.01-.028a.289.289,0,0,1,.015-.04l0-.009a.06.06,0,0,1,.015-.023l.005,0,.011-.008a.053.053,0,0,0,.05.027h0a.072.072,0,0,0-.011.016l0,.006a.05.05,0,0,1-.015.006.142.142,0,0,0-.024.009l-.025.013.016.019a.067.067,0,0,0,.05.017h.051a.381.381,0,0,1,.048,0l.036,0,.019,0,.029,0,.031,0h.066a.463.463,0,0,1,.082.008.515.515,0,0,0,.074.01H536l.018,0,.044.005a.18.18,0,0,1,.064.021l.024.015.032.02a.368.368,0,0,1,.051.039l.018.018.01-.005h0l-.007.008.015.016a.126.126,0,0,0,.032.022l.011.007,0,0,.006.007a.079.079,0,0,0,.017.013l0,0v0a.051.051,0,0,0,.006.011l.011.016a.369.369,0,0,0,.046.051l0,.005,0,.007a.058.058,0,0,0,.014.012l0,0,.007.01,0,0,0,0,.007.011a.493.493,0,0,0,.048.067.2.2,0,0,1,.015.029c.013.028.019.042.037.048l.013,0h0a.079.079,0,0,0-.021.041.041.041,0,0,0,.014.026l.016.018.021.025.007.009a.122.122,0,0,0,.027.03.049.049,0,0,0,.02.008h0a.035.035,0,0,0,0,.054l.011.011.01.01a.079.079,0,0,0,.039.025l0,0a.136.136,0,0,0,.028.015l.008,0h0l.007,0,.012.006h0l.009,0,0,0a.05.05,0,0,0,.039-.013l.006.006-.023,0-.016,0-.019,0a.037.037,0,0,0-.032.048.077.077,0,0,0,.006.015.028.028,0,0,1,0,.009s0,.008,0,.013a.162.162,0,0,0,0,.016.077.077,0,0,0,.005.022l0,.008a.055.055,0,0,1,0,.009.065.065,0,0,0,0,.023l.008.02h0v.008a.112.112,0,0,0,.011.036l.005.014c0,.012.007.025.01.042a.231.231,0,0,0,.026.067.323.323,0,0,1,.026.071.291.291,0,0,0,.024.057c.005.011.011.021.016.033a.091.091,0,0,1,0,.015.106.106,0,0,0,.006.022.071.071,0,0,0,.02.023l.006.005.018.022a.37.37,0,0,0,.038.044l.017.015.013.012a.3.3,0,0,1,.034.04.275.275,0,0,0,.033.035l.007.007a.086.086,0,0,1,.014.021l.005.009a.1.1,0,0,0,.028.028.091.091,0,0,0,.017.009l.008,0a.056.056,0,0,0,.035.015h0l.005.008a.084.084,0,0,0,.025.017.051.051,0,0,0,.045,0,.024.024,0,0,0,0,.007.038.038,0,0,0,.031.012h.031v-.009h0l0,.009h.007a.06.06,0,0,0,.043-.014l0,0h.013a.114.114,0,0,0,.043-.006l.01,0h.027l.017,0,.01,0,.033,0h.024a.15.15,0,0,0,.033,0,.043.043,0,0,0,.037-.029h0a.054.054,0,0,0,.037,0,.043.043,0,0,0,.034-.031.076.076,0,0,0,.044.016h0a.082.082,0,0,0,.061-.02l0,0a.273.273,0,0,0,.04,0h.017a.046.046,0,0,0,.033-.005c.02-.013.021-.037.018-.088a.193.193,0,0,0,.014.036l.013.027.032-.015.018-.008.039-.017.011-.005,0-.01a.075.075,0,0,0,0-.035.071.071,0,0,0,.044.044.057.057,0,0,0,.046-.008.042.042,0,0,0,.011-.063.123.123,0,0,0,.029,0h.012a.091.091,0,0,0,.044-.007.051.051,0,0,0,.019.049.3.3,0,0,0,.115.031.219.219,0,0,0,.074-.01l.024-.006a.741.741,0,0,1,.107-.009.69.69,0,0,0,.142-.015l.028-.005a.217.217,0,0,0,.07-.018.392.392,0,0,0,.06-.051.1.1,0,0,0-.006-.094l.017,0a.066.066,0,0,1,.023,0c.006,0,.011.021.013.032a.155.155,0,0,0,.013.037l.015.027.03-.018a.131.131,0,0,0,.056-.1.157.157,0,0,1,.017-.053.557.557,0,0,1,.036-.046.3.3,0,0,0,.063-.1c.006-.019.012-.037.018-.058a.841.841,0,0,1,.027-.083.343.343,0,0,0,.019-.093.442.442,0,0,1,.01-.061.54.54,0,0,1,.018-.055.394.394,0,0,0,.025-.087.138.138,0,0,0-.024-.088.129.129,0,0,1-.017-.039c-.007-.038.006-.1.027-.11a.084.084,0,0,1,.029-.006.122.122,0,0,0,.057-.017.187.187,0,0,0,.05-.06,2.156,2.156,0,0,1,.21-.281c.009-.01.018-.023.027-.036a.287.287,0,0,1,.083-.086.117.117,0,0,1,.033-.007.128.128,0,0,0,.061-.019.115.115,0,0,0,.034-.075v0a.4.4,0,0,0,0-.042.2.2,0,0,1,.022-.1.078.078,0,0,1,.026-.005.159.159,0,0,0,.053-.012.3.3,0,0,0,.064-.052l0,0a.436.436,0,0,1,.077-.064l.006.014a.087.087,0,0,0,.021.035.148.148,0,0,0,.1.037.369.369,0,0,0,.17-.053.091.091,0,0,0,.037-.082l.042.025c.039.022.067.038.081.077a.124.124,0,0,1,.005.022.1.1,0,0,0,.022.053.193.193,0,0,0,.067.044l.018.009c.045.023.05.055.058.1v0l0,.021c.012.059.025.127.142.128h0c.09,0,.133-.026.154-.092a.148.148,0,0,1,.045-.058.233.233,0,0,0,.05-.06.053.053,0,0,0-.005-.07l-.01-.013c-.011-.017-.009-.03,0-.054a.206.206,0,0,1,.1-.1l.008,0c.062-.027.12-.053.089-.134a.178.178,0,0,0-.043-.056c-.024-.024-.034-.036-.029-.048a.262.262,0,0,1,.074-.085l.038-.035.013-.013c.015-.014.03-.029.043-.045a.193.193,0,0,0,.039-.106.166.166,0,0,1,.033-.092.383.383,0,0,0,.078-.137.111.111,0,0,0-.01-.072c-.008-.022-.016-.043,0-.058a.053.053,0,0,1,.017-.008.078.078,0,0,0,.051-.037.066.066,0,0,0-.014-.064.089.089,0,0,1-.009-.016c-.019-.056-.017-.1.006-.114a.171.171,0,0,1,.042-.023.073.073,0,0,0,.056-.091.043.043,0,0,1,0-.02.058.058,0,0,1,.019,0h.018a.2.2,0,0,0,.069-.01.351.351,0,0,0,.177-.235c.005-.018.012-.036.018-.055a.623.623,0,0,0,.027-.089.586.586,0,0,0,.006-.121c0-.01,0-.021,0-.031s0-.016,0-.023c0-.026,0-.035.023-.05l.053-.027c.075-.037.161-.079.167-.167a.3.3,0,0,0,0-.036.208.208,0,0,1,0-.04.4.4,0,0,1,.009-.042.262.262,0,0,0,.011-.082c0-.009,0-.018,0-.027,0-.038-.009-.081.021-.1a.3.3,0,0,1,.043-.024.144.144,0,0,0,.086-.082.372.372,0,0,0,.014-.106.475.475,0,0,1,.006-.073c0-.017.006-.034.009-.051v-.006a1.138,1.138,0,0,1,.029-.134.338.338,0,0,1,.044-.085c.009-.014.018-.028.027-.044a.42.42,0,0,0,.036-.093c.005-.017.01-.034.016-.049a.285.285,0,0,1,.068-.089l.019-.02a.272.272,0,0,0,.037-.053.2.2,0,0,1,.035-.049c.014-.013.048-.013.082-.012h.015a.239.239,0,0,0,.089-.012.339.339,0,0,0,.1-.074.521.521,0,0,1,.044-.039l.008-.006a.475.475,0,0,0,.119-.11.1.1,0,0,0-.009-.1.111.111,0,0,1-.016-.052.129.129,0,0,1,.02-.05.112.112,0,0,0,.018-.1.273.273,0,0,0-.012-.029.13.13,0,0,1-.014-.039.1.1,0,0,1,.006-.039.171.171,0,0,0,.007-.035.16.16,0,0,0-.083-.134.556.556,0,0,0-.167-.064c-.079-.019-.081-.05-.084-.108a.431.431,0,0,0-.006-.054c-.006-.03-.009-.062-.011-.092s-.006-.062-.012-.093-.01-.064-.013-.1a.5.5,0,0,0-.1-.287c-.043-.052-.078-.1-.115-.157l-.014-.02c-.009-.013-.017-.027-.026-.042a.494.494,0,0,0-.059-.085.137.137,0,0,0-.065-.037v-.007a1.244,1.244,0,0,0-.051-.194c-.014-.043-.028-.087-.038-.131a.562.562,0,0,1-.015-.079.125.125,0,0,0-.021-.053c0-.006-.007-.013-.011-.02s0-.029.023-.038a.119.119,0,0,1,.026-.005.185.185,0,0,0,.032-.006c.035-.011.059-.051.08-.085l.01-.017a.858.858,0,0,0,.106-.193,1.114,1.114,0,0,0,.038-.154.814.814,0,0,1,.057-.2,1.513,1.513,0,0,1,.216-.3l.009-.01.037-.044c.106-.128.221-.259.314-.364l.045-.051a1.759,1.759,0,0,0,.44-.679,1.908,1.908,0,0,0,.042-.393l0-.059c0-.079,0-.16,0-.24v0c0-.068,0-.139,0-.209,0-.1.013-.2.022-.3,0-.046.009-.093.013-.139s.006-.106.007-.154a1.664,1.664,0,0,1,.021-.26c.006-.032.013-.063.02-.1s.017-.076.024-.116a.527.527,0,0,0-.017-.208l0-.019a.326.326,0,0,1,.056-.291l.011-.014A.142.142,0,0,0,544.032,697.324Zm-22.357,6.108.007.006a.029.029,0,0,0,.041-.007v0a.078.078,0,0,0,.028.04.06.06,0,0,0,.04.015.138.138,0,0,0,.065-.023.347.347,0,0,1,.084-.029.208.208,0,0,0,.11-.051.151.151,0,0,0,.084.067.166.166,0,0,0,.09,0,.084.084,0,0,1,.054,0l.007,0a.145.145,0,0,0-.053,0l-.036.01-.024.007a.109.109,0,0,1-.08-.023l-.008,0a.135.135,0,0,0-.069-.019.262.262,0,0,0-.116.038l-.04.019a.146.146,0,0,1-.1.015l-.013-.006a.077.077,0,0,0-.029-.011h-.008a.053.053,0,0,0-.027.007c-.006-.012-.012-.024-.017-.036a.029.029,0,0,0-.043,0l-.015.018a.23.23,0,0,0,.031-.062c0-.01.007-.02.012-.03a.149.149,0,0,0,0,.028C521.648,703.409,521.663,703.422,521.675,703.432Zm8.769,5.788-.017-.011-.007,0h0a.019.019,0,0,0,.011-.015s0-.008,0-.012a.081.081,0,0,1,.015.042Zm-1.013.08s0,.008,0,.01a.063.063,0,0,1-.03,0h-.022a.044.044,0,0,0,.028-.039l.035,0,0,0A.016.016,0,0,0,529.431,709.3Zm-5.378-2.654c0-.006,0-.012,0-.018a.059.059,0,0,0,.057,0,.045.045,0,0,1-.02.011.16.16,0,0,0-.04.018A.059.059,0,0,0,524.054,706.646Zm.329.674c0,.011,0,.015,0,.018l.015.017a.185.185,0,0,0-.043-.02A.077.077,0,0,0,524.382,707.321Zm.067.087.006.006a.054.054,0,0,0,.026.01.111.111,0,0,0-.033.012.027.027,0,0,0,0-.008A.034.034,0,0,0,524.45,707.408Zm-2.694-5.148a.4.4,0,0,0,.034-.054c.011.006.018.013.018.018s-.01.011-.017.013A.1.1,0,0,0,521.756,702.26Zm-.035.043,0,.006c-.015.023-.037.059-.061.059a.035.035,0,0,1-.017-.005.109.109,0,0,0,.066-.042l0,0Zm-.124.051.009-.023a.011.011,0,0,1,.006-.006.039.039,0,0,1-.006.01.014.014,0,0,0,0,.017.023.023,0,0,0,.011.008h0a.086.086,0,0,0-.024.018C521.591,702.37,521.594,702.362,521.6,702.353Zm1.1,1.885-.022.017h0a.091.091,0,0,0-.01-.029A.1.1,0,0,0,522.7,704.238Zm7.552,4.972.038-.009a.2.2,0,0,1,.061-.01.258.258,0,0,0-.056.013l-.022.007a.265.265,0,0,1-.068.008h-.024A.59.59,0,0,0,530.251,709.21Zm6.48-.245a.034.034,0,0,0,.013.011l.012,0-.021.007-.005,0h-.016A.067.067,0,0,0,536.732,708.965Zm1.276.739.01.009.013.012a.116.116,0,0,1,0,.015v0c0,.011.005.021.008.031-.006-.013-.013-.026-.02-.037l-.01-.019,0,0Zm.812-.139a.127.127,0,0,0,.046.028c0,.01-.006.019-.008.026l0-.008-.005-.01A.216.216,0,0,0,538.819,709.564Zm-15.5-4.13Zm.741,1.333Zm5.478,2.511h.01c.017,0,.023,0,.026.014A.079.079,0,0,0,529.541,709.279Zm-.253-8.9Zm-4.859,7.123c.022.013.024.019.023.021s-.011.01-.02.014l-.01.005,0,0a.039.039,0,0,0,0-.023A.063.063,0,0,0,524.429,707.506Z" transform="translate(-521.038 -693.664)"/></g><g transform="translate(16.344 1.136)"><g class="c" transform="translate(0 0)"><path class="a" d="M1043.416,280.094l-.289-1.24-1.271-.107,1.089-.659-.289-1.24.963.833,1.089-.659-.492,1.173.963.833-1.268-.107Z" transform="translate(-1041.856 -276.848)"/></g></g><g transform="translate(16.344 31.294)"><g class="c" transform="translate(0 0)"><path class="a" d="M1043.416,280.094l-.289-1.24-1.271-.107,1.089-.659-.289-1.24.963.833,1.089-.659-.492,1.173.963.833-1.268-.107Z" transform="translate(-1041.856 -276.848)"/></g></g><g transform="translate(31.163 16.215)"><g class="c" transform="translate(0 0)"><path class="a" d="M1043.416,280.094l-.289-1.24-1.271-.107,1.089-.659-.289-1.24.963.833,1.089-.659-.492,1.173.963.833-1.268-.107Z" transform="translate(-1041.856 -276.848)"/></g></g><g transform="translate(1.005 16.215)"><g class="c" transform="translate(0 0)"><path class="a" d="M1043.416,280.094l-.289-1.24-1.271-.107,1.089-.659-.289-1.24.963.833,1.089-.659-.492,1.173.963.833-1.268-.107Z" transform="translate(-1041.856 -276.848)"/></g></g></g><g transform="translate(95.042 94.873)"><path class="a" d="M5.382-49.416H12.8l6.933,18.952h.113l6.857-18.952h7.46V-22.74h-4.71V-44.179h-.075l-8.1,21.438H17.966L9.979-44.179H9.9V-22.74H5.382Zm31.5,13.262a14.925,14.925,0,0,1,1.074-5.783,12.7,12.7,0,0,1,2.977-4.389,13.179,13.179,0,0,1,4.521-2.788,16.167,16.167,0,0,1,5.708-.98,16.434,16.434,0,0,1,5.765.98,13.345,13.345,0,0,1,4.559,2.788,12.573,12.573,0,0,1,3,4.389,14.925,14.925,0,0,1,1.074,5.783,14.72,14.72,0,0,1-1.074,5.708,13.163,13.163,0,0,1-3,4.446,13.606,13.606,0,0,1-4.559,2.9,15.631,15.631,0,0,1-5.765,1.036A15.378,15.378,0,0,1,45.452-23.1,13.441,13.441,0,0,1,40.931-26a13.3,13.3,0,0,1-2.977-4.446A14.72,14.72,0,0,1,36.88-36.153Zm5.162,0a11.311,11.311,0,0,0,.659,3.937,9.169,9.169,0,0,0,1.884,3.108,8.653,8.653,0,0,0,2.9,2.053,9.148,9.148,0,0,0,3.711.735,9.282,9.282,0,0,0,3.73-.735,8.6,8.6,0,0,0,2.92-2.053,9.169,9.169,0,0,0,1.884-3.108,11.31,11.31,0,0,0,.659-3.937A10.928,10.928,0,0,0,59.732-40a9.37,9.37,0,0,0-1.865-3.09,8.628,8.628,0,0,0-2.9-2.072,9.176,9.176,0,0,0-3.768-.754,9.045,9.045,0,0,0-3.749.754,8.678,8.678,0,0,0-2.882,2.072A9.37,9.37,0,0,0,42.7-40,10.929,10.929,0,0,0,42.042-36.153ZM64.5-49.416H69.81l7.347,20.534h.151l7.422-20.534h5.124L79.154-22.74H75.048Z" transform="translate(16.103 50.094)"/><path class="a" d="M16.826-26.324a5.575,5.575,0,0,0-.245-1.658,3.794,3.794,0,0,0-.772-1.394,3.771,3.771,0,0,0-1.338-.961,4.676,4.676,0,0,0-1.9-.358,5.081,5.081,0,0,0-3.447,1.225,4.464,4.464,0,0,0-1.564,3.146Zm4.521,2.035v.6a4.856,4.856,0,0,1-.038.6H7.557a4.478,4.478,0,0,0,.509,1.79A4.556,4.556,0,0,0,9.215-19.9a5.718,5.718,0,0,0,1.62.923,5.322,5.322,0,0,0,1.884.339,6.032,6.032,0,0,0,2.863-.622A5.364,5.364,0,0,0,17.5-20.974l3.014,2.411a9.058,9.058,0,0,1-7.762,3.617,11.041,11.041,0,0,1-3.881-.659A9.158,9.158,0,0,1,5.805-17.47a8.406,8.406,0,0,1-2.035-2.958A10.2,10.2,0,0,1,3.036-24.4a10.374,10.374,0,0,1,.735-3.975A9.049,9.049,0,0,1,5.786-31.43a9.017,9.017,0,0,1,3.033-1.959,10.15,10.15,0,0,1,3.787-.7,9.548,9.548,0,0,1,3.485.622,7.558,7.558,0,0,1,2.769,1.846,8.562,8.562,0,0,1,1.827,3.052A12.592,12.592,0,0,1,21.347-24.29Z" transform="translate(-3.036 42.823)"/></g></g></svg>