<svg xmlns="http://www.w3.org/2000/svg" width="115.245" height="28.071" viewBox="0 0 115.245 28.071"><defs><style>.a,.d{fill:#930;}.b{fill:#007c45;}.c{fill:#093;}.d{stroke:#fff;}.e{isolation:isolate;}.f{fill:#f4f3f1;}.g{fill:#313131;}</style></defs><g transform="translate(-54 -87.099)"><g transform="translate(54 87.099)"><g transform="translate(3.877 3.877)"><path class="a" d="M1261.742,1196.774h7.915q-.024.207-.056.412Z" transform="translate(-1249.496 -1185.506)"/><path class="a" d="M1261.742,1196.774l7.73,1.087c-.03.133-.063.266-.1.4Z" transform="translate(-1249.496 -1185.506)"/><path class="a" d="M1261.742,1196.774l7.434,2.131q-.066.192-.139.38Z" transform="translate(-1249.496 -1185.506)"/><path class="a" d="M1261.742,1196.774l7.03,3.13q-.086.183-.178.361Z" transform="translate(-1249.496 -1185.506)"/><path class="a" d="M1261.742,1196.774l6.523,4.076q-.1.172-.216.34Z" transform="translate(-1249.496 -1185.506)"/><path class="a" d="M1261.742,1196.774l5.918,4.965q-.123.161-.252.318Z" transform="translate(-1249.496 -1185.506)"/><path class="a" d="M1261.742,1196.774l5.215,5.792q-.141.149-.288.292Z" transform="translate(-1249.496 -1185.506)"/><path class="a" d="M1261.742,1196.774l4.418,6.549q-.159.135-.323.264Z" transform="translate(-1249.496 -1185.506)"/><path class="a" d="M1261.742,1196.774l3.525,7.228q-.177.12-.359.232Z" transform="translate(-1249.496 -1185.506)"/><path class="a" d="M1261.742,1196.774l2.54,7.816q-.194.1-.393.194Z" transform="translate(-1249.496 -1185.506)"/><path class="a" d="M1261.742,1196.774l1.464,8.3q-.211.08-.426.151Z" transform="translate(-1249.496 -1185.506)"/><path class="a" d="M1251.73,1196.774l.3,8.662q-.226.056-.455.1Z" transform="translate(-1239.484 -1185.506)"/><path class="a" d="M1169.147,1196.774l-.934,8.887q-.239.028-.481.045Z" transform="translate(-1156.901 -1185.506)"/><path class="a" d="M1082.852,1196.774l-2.233,8.957q-.251,0-.5-.017Z" transform="translate(-1070.606 -1185.506)"/><path class="a" d="M994.128,1196.774l-3.578,8.855q-.258-.037-.511-.087Z" transform="translate(-981.882 -1185.506)"/><path class="a" d="M904.738,1196.774l-4.943,8.562q-.259-.075-.511-.163Z" transform="translate(-892.492 -1185.506)"/><path class="a" d="M816.836,1196.774l-6.3,8.062q-.253-.115-.5-.243Z" transform="translate(-804.59 -1185.506)"/><path class="a" d="M732.858,1196.774l-7.609,7.348q-.241-.155-.472-.323Z" transform="translate(-720.612 -1185.506)"/><path class="a" d="M655.442,1196.774l-8.834,6.419q-.22-.2-.429-.4Z" transform="translate(-643.196 -1185.506)"/><path class="a" d="M587.357,1196.774l-9.933,5.281q-.192-.233-.371-.477Z" transform="translate(-575.111 -1185.506)"/><path class="a" d="M531.42,1196.774l-10.862,3.954q-.156-.266-.3-.542Z" transform="translate(-519.175 -1185.506)"/><path class="a" d="M490.308,1196.774l-11.58,2.461q-.112-.293-.207-.595Z" transform="translate(-478.062 -1185.506)"/><path class="a" d="M466.246,1196.774l-12.049.843q-.062-.312-.106-.63Z" transform="translate(-454 -1185.506)"/><path class="a" d="M448,1097.255q0-.174.006-.348l12.24,1.5L448,1097.554c0-.1,0-.2,0-.3Z" transform="translate(-448 -1087.142)"/><path class="a" d="M466.778,985.729l-12.146-2.582q.046-.325.112-.643Z" transform="translate(-454.532 -974.461)"/><path class="a" d="M492.408,876.394l-11.754-4.278q.1-.313.223-.617Z" transform="translate(-480.163 -865.126)"/><path class="a" d="M537.031,774.156l-11.073-5.887q.154-.291.326-.57Z" transform="translate(-524.785 -762.888)"/><path class="a" d="M599.171,682.4l-10.123-7.355q.2-.259.418-.5Z" transform="translate(-586.925 -671.137)"/><path class="a" d="M676.577,604.014l-8.941-8.634q.241-.219.5-.423Z" transform="translate(-664.331 -592.746)"/><path class="a" d="M766.466,541.278l-7.567-9.686q.271-.173.554-.33Z" transform="translate(-754.22 -530.01)"/><path class="a" d="M865.684,495.844l-6.051-10.481q.293-.123.595-.228Z" transform="translate(-853.438 -484.576)"/><path class="a" d="M970.793,468.558l-4.445-11q.3-.071.614-.124Z" transform="translate(-958.548 -457.29)"/><path class="a" d="M1078.219,459.279l-2.8-11.246q.3-.02.614-.022Z" transform="translate(-1065.973 -448.011)"/><path class="a" d="M1184.533,462.171l-1.18-11.224q.3.028.6.074Z" transform="translate(-1172.287 -450.903)"/><path class="a" d="M1261.742,479.908l.382-10.953q.284.073.562.161Z" transform="translate(-1249.496 -468.64)"/><path class="a" d="M1261.742,512.408l1.844-10.456q.262.112.515.238Z" transform="translate(-1249.496 -501.14)"/><path class="a" d="M1261.742,557.591l3.173-9.766q.234.145.46.3Z" transform="translate(-1249.496 -546.323)"/><path class="a" d="M1261.742,613.117l4.349-8.918q.2.171.4.352Z" transform="translate(-1249.496 -601.849)"/><path class="a" d="M1261.742,676.658l5.36-7.947q.172.19.335.389Z" transform="translate(-1249.496 -665.39)"/><path class="a" d="M1261.742,746.071l6.2-6.886q.141.2.271.415Z" transform="translate(-1249.496 -734.803)"/><path class="a" d="M1261.742,819.452l6.87-5.765q.109.213.208.431Z" transform="translate(-1249.496 -808.184)"/><path class="a" d="M1261.742,895.155l7.375-4.608q.079.217.148.438Z" transform="translate(-1249.496 -883.887)"/><path class="a" d="M1261.742,971.777l7.721-3.438q.05.218.091.439Z" transform="translate(-1249.496 -960.509)"/><path class="a" d="M1261.742,1048.155l7.919-2.271q.024.215.038.434Z" transform="translate(-1249.496 -1036.887)"/><path class="a" d="M1261.742,1123.374l7.98-1.121q0,.213-.01.424Z" transform="translate(-1249.496 -1112.105)"/></g><path class="b" d="M226.24,239.69a13.45,13.45,0,1,1,13.45,13.45,13.45,13.45,0,0,1-13.45-13.45Zm3.371,0a10.079,10.079,0,1,0,10.079-10.079,10.079,10.079,0,0,0-10.079,10.079Z" transform="translate(-225.701 -225.701)"/><path class="c" d="M190.4,204.389a13.989,13.989,0,1,1,13.989,13.989A13.989,13.989,0,0,1,190.4,204.389Zm.337,0a13.652,13.652,0,1,0,13.652-13.652,13.652,13.652,0,0,0-13.652,13.652Z" transform="translate(-190.4 -190.4)"/><g transform="translate(4.976 7.574)"><path class="d" d="M539.065,696.533a.264.264,0,0,0-.083-.129l-.011-.011a.241.241,0,0,1-.072-.1.2.2,0,0,1,0-.052.155.155,0,0,0-.012-.084.681.681,0,0,0-.077-.11.5.5,0,0,1-.086-.135.81.81,0,0,1-.035-.185,1.043,1.043,0,0,0-.025-.151,2.687,2.687,0,0,1-.105-.578s0-.019,0-.022l0-.008.013-.04-.043.024c-.078.045-.182.1-.293.155l-.013.006a.179.179,0,0,1-.06.022s-.015-.008-.03-.024l-.009-.01-.056-.051a2.835,2.835,0,0,0-.249-.212.287.287,0,0,0-.12-.06c-.055-.01-.11-.023-.157-.034a3.945,3.945,0,0,1-.459-.129l-.011,0a.6.6,0,0,1-.1-.043l-.012-.007-2.432,1.678-.879.877-.807.171v-.007l-.5.107,0,0a.246.246,0,0,1-.06-.07c-.018-.038.007-.079.03-.115l0-.008a.11.11,0,0,0,.023-.078.073.073,0,0,0-.026-.036.077.077,0,0,1-.022-.026.139.139,0,0,1,0-.079.111.111,0,0,0-.022-.116.24.24,0,0,0-.122-.051.362.362,0,0,1-.083-.025h0l-.064-.021-.074-.024-.023-.007a.332.332,0,0,1-.042-.014.161.161,0,0,1-.057-.051l-.01-.012c-.016-.02-.044-.054-.077-.05s-.069.006-.1.008c-.015,0-.018,0-.025-.016a.08.08,0,0,0-.012-.018.183.183,0,0,0-.047-.033c-.024-.013-.044-.024-.053-.048a.175.175,0,0,1-.006-.03.09.09,0,0,0-.045-.078.187.187,0,0,0-.055-.015.2.2,0,0,1-.041-.01.037.037,0,0,1-.024-.024l-.007-.013a.064.064,0,0,0-.066-.031c0-.018,0-.036,0-.055,0-.048-.008-.1-.009-.146a.013.013,0,0,0-.006-.011l-3.246-2.408,0,0h-.039l-.807.006h-.005c-.009,0-.014.007-.013.014l.4,5.245a.007.007,0,0,0,0,0,.01.01,0,0,0,0,.006l.119.1-.084.5h-2.026a.125.125,0,0,1,0-.039.13.13,0,0,0,0-.044c0-.014-.023-.023-.041-.017a.056.056,0,0,0-.038.047.353.353,0,0,0,0,.048c0,.007,0,.016,0,.024h-.018l-.033,0a.268.268,0,0,0-.091.015.222.222,0,0,0-.029.014.109.109,0,0,1-.05.018c-.022,0-.046,0-.076,0h-.026c-.059,0-.116,0-.184-.011l-.025,0a.357.357,0,0,1-.077-.011.241.241,0,0,0-.072-.009.019.019,0,0,0-.018.011.134.134,0,0,0-.006.025.076.076,0,0,1-.012.034l-.012.015a.14.14,0,0,0-.018.024.21.21,0,0,1-.071.085.149.149,0,0,0-.05-.12.366.366,0,0,0-.076-.06.225.225,0,0,1-.066-.071l-.017-.024,0-.007a.094.094,0,0,0-.071-.049.069.069,0,0,0-.024,0,.128.128,0,0,0-.064.078.046.046,0,0,0-.058.02.136.136,0,0,0-.011.044.261.261,0,0,1-.034.1.157.157,0,0,0-.009.1.224.224,0,0,1,0,.069.176.176,0,0,1-.049.087l-.006.006c-.012.013-.024.026-.038.038a.08.08,0,0,1-.061.015h0a.069.069,0,0,0-.027-.023c-.015-.008-.031-.014-.046-.02a.375.375,0,0,1-.061-.029.3.3,0,0,1-.079-.074.451.451,0,0,0-.065-.065.421.421,0,0,1-.065-.066.446.446,0,0,1-.064-.171l0-.008a.018.018,0,0,0-.018-.011c-.065,0-.111-.046-.143-.128-.007-.019-.013-.039-.019-.057a.4.4,0,0,0-.053-.122.143.143,0,0,0-.111-.058.113.113,0,0,0-.028,0c-.014,0-.025-.009-.037-.021a.056.056,0,0,0-.038-.023.037.037,0,0,0-.026.012l-.011.013,0,0a.134.134,0,0,1-.029-.044l-.017-.033c-.009-.017-.018-.035-.028-.053a.5.5,0,0,0-.132-.143l-.006,0a.231.231,0,0,0-.111-.057.043.043,0,0,0-.024.007l-.013.01a.04.04,0,0,1-.035.014.461.461,0,0,1-.049-.01l-.011,0a.851.851,0,0,1-.143-.048c-.012-.005-.028,0-.028.012s-.02.027-.038.027a.041.041,0,0,1-.024-.007.026.026,0,0,0-.028,0,.011.011,0,0,0,0,.01.03.03,0,0,1-.009.029.134.134,0,0,1-.083.018l-.047,0a.228.228,0,0,0-.127.026l-.007,0a.177.177,0,0,1-.068.024.19.19,0,0,1-.037,0l-.019,0a.089.089,0,0,0-.05.009l-.011-.014a.1.1,0,0,0-.069-.047.1.1,0,0,0-.1.063.169.169,0,0,0-.01.064c0,.04,0,.071-.057.093-.021.008-.028.03-.033.05a.074.074,0,0,1-.013.029.02.02,0,0,0-.02.009.1.1,0,0,0-.007.04v.012c0,.012,0,.025,0,.037s0,.041-.005.062a.131.131,0,0,1-.025.074.237.237,0,0,0-.035.08l-.008.025a.528.528,0,0,1-.069.122l-.021.03c-.036.054-.07.1-.105.152a.527.527,0,0,1-.054.062.307.307,0,0,1-.1.057l-.009,0-.039.014a.3.3,0,0,0-.061.024.033.033,0,0,0-.017.032.029.029,0,0,0,.02.023.139.139,0,0,0,.052.008h0a.2.2,0,0,1,.1.019.187.187,0,0,1,.076.086c.006.011.012.022.019.033a.483.483,0,0,1,.044.091c.006.016.012.031.02.047a.111.111,0,0,0,.025.031l.008.009a.135.135,0,0,1,.029.085.521.521,0,0,1,0,.054v.007c0,.005,0,.01,0,.014s.008.014.019.014h.005a.192.192,0,0,0,.012.07.022.022,0,0,0,.032.006.238.238,0,0,1,.034-.022.226.226,0,0,0,.04-.027.1.1,0,0,0,.013-.015.172.172,0,0,0,.009.027.022.022,0,0,0-.019,0,.149.149,0,0,0-.071.066.038.038,0,0,0,.006.039.03.03,0,0,0,.03.01l.017-.006a.075.075,0,0,0-.023.065l0,0a.538.538,0,0,0-.058.043.589.589,0,0,1-.048.037c-.028.019-.053.035-.035.069l.007.013a.116.116,0,0,1,.018.048c0,.008,0,.015,0,.023s0,.02,0,.03a.046.046,0,0,0,.005.017h0l0,0,.006.005a.258.258,0,0,1-.011.113.32.32,0,0,0-.014.1.017.017,0,0,0,.019.014h.016l0,0a.073.073,0,0,0-.018.021.076.076,0,0,0,0,.05.176.176,0,0,1,0,.018c0,.01.017.018.029.012a.116.116,0,0,0,.023-.015.164.164,0,0,1-.067.043c-.01,0-.015.01-.012.017a.2.2,0,0,0,.025.047.127.127,0,0,1,.026.063h0a.011.011,0,0,0,0,0v0h0a.032.032,0,0,0,.023.012h.007l.03,0a.039.039,0,0,1,.039.027l0,.007a.075.075,0,0,0,.056.031.066.066,0,0,0,.054-.018.065.065,0,0,0,.011-.013v0a.021.021,0,0,0,.019.007l-.015.014-.015.013c-.018.016-.038.033-.028.06a.063.063,0,0,0,.026.024l0,0a.2.2,0,0,1,.048.039.1.1,0,0,0,.089.029.125.125,0,0,0,.084-.039l.021-.021.032-.012.019,0a.039.039,0,0,1-.014.028.054.054,0,0,1-.035.012.055.055,0,0,0-.034.014.126.126,0,0,0-.031.042.031.031,0,0,0-.019-.016.056.056,0,0,0-.024,0l-.011,0h-.038v0a.026.026,0,0,0-.016.013c-.006.014.007.032.018.048a.072.072,0,0,1,.012.019.019.019,0,0,0,.019.014l.01,0a.151.151,0,0,0,.038-.025.03.03,0,0,0,.031.015.092.092,0,0,0,.037-.016.053.053,0,0,1,.023-.01s.006,0,.013.007a.047.047,0,0,0,.034.012.238.238,0,0,0,.105-.043l.006,0,.024-.016a.24.24,0,0,1,.062-.034.062.062,0,0,1,.025,0l.019,0a.2.2,0,0,0,.082-.011.673.673,0,0,1,.066-.016c0,.005,0,.011,0,.016a.087.087,0,0,0,0,.033.049.049,0,0,0,.011.023c-.018,0-.018,0-.021-.013a.118.118,0,0,0-.005-.016.022.022,0,0,0-.027-.008.1.1,0,0,1-.079.009.109.109,0,0,0-.046-.006.114.114,0,0,0-.066.037l-.013.011-.01.007c-.021.016-.047.036-.044.057s.009.02.024.027.009.006.009.008-.02.015-.034.022-.044.021-.047.036a.019.019,0,0,0,.007.018.057.057,0,0,0,.041.017.137.137,0,0,0,.083-.045.021.021,0,0,0,.018,0,.08.08,0,0,0,.013-.018l0,0,0,0,.007-.011a.024.024,0,0,0,.03,0,.076.076,0,0,0,.011-.028l0-.009a.025.025,0,0,0,.021,0l0,0a.014.014,0,0,0,0,.007.023.023,0,0,0,.024,0l.007,0c.006,0,.012.008.017.015l0,.006a.046.046,0,0,0-.022,0h0a.025.025,0,0,0-.024.017.034.034,0,0,0-.018-.005.105.105,0,0,0-.044.015.015.015,0,0,0-.009.011.012.012,0,0,0,.006.011.134.134,0,0,1-.028,0h0a.073.073,0,0,0-.037.022l-.01.009a.1.1,0,0,0-.033.085c0,.006,0,.011,0,.016a.012.012,0,0,0,0,.01.023.023,0,0,0,.024,0,.338.338,0,0,0,.06-.043l0,0a.022.022,0,0,0,.016.006l-.014.008a.12.12,0,0,0-.046.036.02.02,0,0,0,0,.021.071.071,0,0,0,.044.022l.016,0c.022,0,.055.01.057.024a.045.045,0,0,1,0,.02.1.1,0,0,0,0,.015.043.043,0,0,0,.007.039.04.04,0,0,0,.025.01h0a.069.069,0,0,0,.033-.012l0,0a.118.118,0,0,1,.023-.013v0a.081.081,0,0,1-.016.027.061.061,0,0,0-.019.05.031.031,0,0,0,.031.027l.015,0c0,.008.005.015-.005.023a.029.029,0,0,0-.011.021v0c0,.011.011.022.014.024a.116.116,0,0,1,.037.048.017.017,0,0,0,.017.011.019.019,0,0,0,.02-.014.2.2,0,0,0,0-.055c0-.012,0-.013.007-.015a.035.035,0,0,0,.016-.011.041.041,0,0,0,.012-.028.072.072,0,0,0,0-.009l.009,0,.012-.007.005,0h0l0,0a.129.129,0,0,0-.023.03.106.106,0,0,0-.005.051.02.02,0,0,0,.025.013l0,.015,0,.009s-.01.027,0,.041a.027.027,0,0,0,.021.011.044.044,0,0,0,.03-.017c0,.01,0,.022,0,.035a.012.012,0,0,0,0,.01.024.024,0,0,0,.028,0,.227.227,0,0,0,.04-.054l0,.017a.307.307,0,0,1-.052.127.011.011,0,0,0,0,.014.021.021,0,0,0,.018.008.058.058,0,0,0,.031-.008.147.147,0,0,1,.009.03.076.076,0,0,0,0,.015.064.064,0,0,0,.013.016l0,0a.07.07,0,0,1,.014.041v.009c0,.011,0,.022.006.033l.005.027a.017.017,0,0,0,.018.011.024.024,0,0,0,.013,0,.041.041,0,0,1,.022-.01c.008,0,.015.008.022.017a.115.115,0,0,0,.014.015.024.024,0,0,0,.024,0,.123.123,0,0,1,.01.031.018.018,0,0,0,.019.012.02.02,0,0,0,.014,0l0-.006.005.009a.03.03,0,0,0,.015.019.024.024,0,0,0,.029,0,.012.012,0,0,0,0-.014l-.006-.009h0l.017-.005h0a.025.025,0,0,0,.008.011c-.027.033.015.064.039.082a.233.233,0,0,1,.033.033.3.3,0,0,0,.03.03.042.042,0,0,0,.035.007h0a.079.079,0,0,0,0,.024.021.021,0,0,0,.028.009.029.029,0,0,0-.007.028.024.024,0,0,0,.025.015.1.1,0,0,0,.042-.014l.006,0a.119.119,0,0,1-.01.017.146.146,0,0,0-.011.022l-.008.02a.2.2,0,0,1-.022.046.017.017,0,0,0,0,.022.052.052,0,0,0,.066.008l.013-.009,0,0a.049.049,0,0,0,0,.037.059.059,0,0,1,0,.008c0,.013.005.036.032.037a.065.065,0,0,0,.021,0h.008s0,.01,0,.016a.313.313,0,0,0,0,.068.021.021,0,0,0,.029.011l.014-.01.009-.007v0a.077.077,0,0,1,0,.019.055.055,0,0,0,0,.035.022.022,0,0,0,.036.011l0,0,0,0-.013.013a.024.024,0,0,0,0,.014v0l.005,0h0a.111.111,0,0,0-.035.019.021.021,0,0,0-.016.015.049.049,0,0,0,.017.048.209.209,0,0,0,.127.036.1.1,0,0,0,.007.014.141.141,0,0,0-.074.03c-.025.022-.015.056-.006.085a.132.132,0,0,1,.007.035.145.145,0,0,0,.039.1.035.035,0,0,0,.034,0l.006,0,0,.006a.026.026,0,0,0,0,.021.288.288,0,0,0-.053-.018.064.064,0,0,0-.057.009.03.03,0,0,0-.008.031.256.256,0,0,0,.026.059v0a.215.215,0,0,1,.017.044.235.235,0,0,0,.015.042.029.029,0,0,0,.027.015.093.093,0,0,0,.047-.018.068.068,0,0,1,.027-.012c.007,0,.014.01.02.027l0,.007c.041.1.036.122.029.129s-.006,0-.013,0a.032.032,0,0,0-.032.01.018.018,0,0,0,0,.022l.006.009a.353.353,0,0,1,.028.041.032.032,0,0,0,.032.011l.009,0a.039.039,0,0,0,.008.017.143.143,0,0,0,.047.033l.012.006h-.011a.255.255,0,0,0-.144.048c-.015.011-.015.027,0,.049a.043.043,0,0,0,.04.016h.015l.024,0a.259.259,0,0,1,.037.005.079.079,0,0,1,.042.034l0,.006.005.007c.014.019.036.049.07.044a.049.049,0,0,0,.03-.015h0a.025.025,0,0,0,.019.018.523.523,0,0,1,.1.047.564.564,0,0,0,.1.047.5.5,0,0,1,.08.036l.028.015c.017.008.033.015.049.021a.3.3,0,0,1,.079.041l.014.011a.169.169,0,0,0,.064.039.034.034,0,0,0,0,.007.13.13,0,0,0,.022.038l.009.013a.1.1,0,0,1,.011.031c0,.006,0,.013.005.019.011.033.051.063.123.092a.271.271,0,0,1,.03.015.3.3,0,0,0,.036.019.192.192,0,0,1,.041.025l.02.014a.379.379,0,0,1,.057.044.09.09,0,0,0,.017.012l.007,0a.04.04,0,0,1,0,.016v.005a.032.032,0,0,0,.01.033l.014.015.025.026a.136.136,0,0,0,.052.028l.013,0a.4.4,0,0,0,.072.022l.014,0c.023,0,.026.006.028.011l0,.007a.043.043,0,0,0,.016.028l.013.01.01.008a.152.152,0,0,0,.034.02l.016.009a.112.112,0,0,1,.022.02l.011.012a.4.4,0,0,0,.031.027.177.177,0,0,1,.043.042.6.6,0,0,0,.074.091l.006.006.029.03a.6.6,0,0,1,.058.065l.011.016a.218.218,0,0,0,.021.03.156.156,0,0,0,.018.016.1.1,0,0,1,.015.014.8.8,0,0,0,.07.074l.024.024c.012.012.025.024.037.038a.252.252,0,0,0,.062.055.228.228,0,0,1,.033.024l.028.022c.018.012.034.025.051.038l.017.014a.33.33,0,0,0,.065.036.225.225,0,0,1,.065.039.4.4,0,0,0,.106.066l.022.011a.208.208,0,0,1,.029.019l.028.019a.169.169,0,0,0,.027.012l.02.008.011.007a.128.128,0,0,0,.044.023l.023.005.021,0,.028.01.007,0,.017.008.015.008a.158.158,0,0,0,.048.013.042.042,0,0,1,.014.006l.008,0,.016.006.01,0,.007.005.008.007a.144.144,0,0,0,.02.019l.007,0,0,0,0,0,.008.008a.075.075,0,0,0,.045.011h.069a.039.039,0,0,0,.026-.008h0l0,0h.006a.142.142,0,0,0,.07-.019.351.351,0,0,0,.054-.047l.023-.023a.122.122,0,0,1,.049-.019.178.178,0,0,0,.051-.018.375.375,0,0,0,.065-.054l.014-.014a.18.18,0,0,1,.078-.026l.041-.009c.042-.013.082-.028.121-.043a1.529,1.529,0,0,1,.146-.051.4.4,0,0,0,.107-.052.374.374,0,0,1,.1-.05.592.592,0,0,1,.138-.024h.025c.034,0,.067,0,.1,0l.044-.007a.32.32,0,0,1,.076-.008h0a.031.031,0,0,0,.03-.026.063.063,0,0,0,.053.018l.036,0h.018a.019.019,0,0,0,.018-.011.012.012,0,0,0-.007-.015.081.081,0,0,1,.008-.021.083.083,0,0,0,.007-.018c0-.008.009-.016.019-.023v0a.012.012,0,0,0,0,.012.022.022,0,0,0,.014.006h.009c.019,0,.068,0,.081-.032h0l0,0,.011.008a.052.052,0,0,0,.045,0,.041.041,0,0,0,.012-.013c0-.007.006-.009.013-.009h.047a.21.21,0,0,0-.046.016l0,0a.371.371,0,0,1-.093.022l-.033.005h0c-.032.005-.071.014-.079.031a.016.016,0,0,0,0,.019.033.033,0,0,0,.026.009h.01l.062-.012.067-.013.058-.009a1.815,1.815,0,0,1,.184-.024.159.159,0,0,1,.068.016.187.187,0,0,0,.068.017.1.1,0,0,0,.031-.005.108.108,0,0,1,.057.012.209.209,0,0,0,.038.012.332.332,0,0,0,.062,0,.346.346,0,0,1,.055,0h0a.022.022,0,0,0,.016-.006.012.012,0,0,0,0-.013c-.005-.015,0-.021.013-.031l.011-.01a.036.036,0,0,0,.006-.023v0a.03.03,0,0,1,.014-.026c-.009.023-.016.05.01.067.008.005.007.015,0,.029s-.006.033.016.042a.08.08,0,0,0,.082-.017l.007-.007c.007-.008.026-.029.036-.029s.005,0,.008.008.007.017.012.03l0,.008.01,0h0a.147.147,0,0,1-.009.023.011.011,0,0,0,0,.011.016.016,0,0,0,.009.006h0l.143.034c.035.009.065.016.094.026a.113.113,0,0,1,.05.043.208.208,0,0,0,.028.031l.008.007a.173.173,0,0,0,.079.048h.011a.192.192,0,0,0,.092-.034.96.96,0,0,0,.127-.1.215.215,0,0,1,.1-.044l.025-.006.01,0a.585.585,0,0,0,.14-.05.265.265,0,0,0,.035-.026.1.1,0,0,1,.088-.034l.025.006a.131.131,0,0,0,.078,0,.283.283,0,0,0,.09-.059l.033-.027a1.187,1.187,0,0,1,.311-.179.647.647,0,0,0,.083-.037c.018-.009.038-.019.058-.027a.222.222,0,0,1,.082-.011h.026c.023,0,.045,0,.062,0a.018.018,0,0,0,.017-.012.087.087,0,0,0,.038.008.669.669,0,0,0,.116-.013.081.081,0,0,0,.056-.055l0-.009a1.455,1.455,0,0,1,.1-.158.26.26,0,0,0,.08.013l.03,0a.091.091,0,0,0,.051-.026.066.066,0,0,1,.047-.015l.022,0a.1.1,0,0,0,.045-.019h.009a.676.676,0,0,0,.09-.022l.038-.01a.656.656,0,0,1,.091-.014l.048-.006.033,0c.077-.011.157-.023.236-.028h.007l.013.005a.225.225,0,0,0,.091,0,.244.244,0,0,1,.077,0,.194.194,0,0,0,.092,0l.016,0,.02,0a.034.034,0,0,0,.029-.026v0l.008-.022a.219.219,0,0,1,.012-.031l0-.007a.048.048,0,0,1,.012-.018l0,0,.008-.006a.041.041,0,0,0,.039.021h0a.056.056,0,0,0-.008.013l0,0a.042.042,0,0,1-.012,0l-.019.007-.019.01.013.015a.052.052,0,0,0,.039.013h.04a.3.3,0,0,1,.038,0l.029,0,.015,0,.023,0,.024,0h.052a.364.364,0,0,1,.065.006.407.407,0,0,0,.058.008h.068l.034,0a.141.141,0,0,1,.05.017l.019.012.025.016a.3.3,0,0,1,.04.03l.014.015.008,0h0l-.005.007.012.012a.1.1,0,0,0,.025.017l.009.005,0,0,0,.006a.058.058,0,0,0,.013.01l0,0v0a.04.04,0,0,0,0,.009l.009.012a.291.291,0,0,0,.036.04l0,0,0,.005a.045.045,0,0,0,.011.009v0l.005.008,0,0,0,0,.006.009a.381.381,0,0,0,.038.053.153.153,0,0,1,.012.023c.01.022.015.033.029.038l.01,0h0a.061.061,0,0,0-.017.032.032.032,0,0,0,.011.02l.013.014.017.02.005.007a.1.1,0,0,0,.021.024.039.039,0,0,0,.015.006h0a.028.028,0,0,0,0,.042l.009.009.008.008a.063.063,0,0,0,.031.02l0,0a.1.1,0,0,0,.022.012l.006,0h0l.006,0,.01,0h0l.007,0h0a.039.039,0,0,0,.03-.01l0,0-.018,0-.012,0-.015,0a.029.029,0,0,0-.025.038.059.059,0,0,0,0,.012.022.022,0,0,1,0,.007.09.09,0,0,1,0,.01s0,.009,0,.013a.065.065,0,0,0,0,.017l0,.007a.043.043,0,0,1,0,.007.051.051,0,0,0,0,.018l.006.015h0v.007a.088.088,0,0,0,.008.028l0,.011c0,.009.005.02.008.033a.18.18,0,0,0,.021.052.255.255,0,0,1,.02.056.226.226,0,0,0,.019.045c0,.008.009.017.012.026a.072.072,0,0,1,0,.012.082.082,0,0,0,0,.017.055.055,0,0,0,.015.018l0,0,.014.017a.279.279,0,0,0,.03.034l.013.012.01.009a.237.237,0,0,1,.027.032.211.211,0,0,0,.026.027l.006.005a.071.071,0,0,1,.011.016l0,.007a.078.078,0,0,0,.022.022l.013.007.006,0a.043.043,0,0,0,.027.012h0l0,.006a.069.069,0,0,0,.02.013.04.04,0,0,0,.035,0l0,.006a.03.03,0,0,0,.024.009h.024v-.007h0l0,.007h.005a.047.047,0,0,0,.034-.011l0,0h.01a.088.088,0,0,0,.033,0l.008,0h.021l.013,0h.008l.026,0h.019a.115.115,0,0,0,.026,0,.034.034,0,0,0,.029-.023h0a.043.043,0,0,0,.029,0,.034.034,0,0,0,.027-.024.059.059,0,0,0,.034.013h0a.065.065,0,0,0,.048-.015l0,0,.031,0h.013a.036.036,0,0,0,.026,0c.016-.01.017-.029.014-.069a.153.153,0,0,0,.011.028l.01.021.025-.012.014-.006.031-.013.009,0,0-.008a.058.058,0,0,0,0-.028.055.055,0,0,0,.034.034.044.044,0,0,0,.036-.006.033.033,0,0,0,.009-.05.1.1,0,0,0,.023,0h.009a.072.072,0,0,0,.034-.006.04.04,0,0,0,.015.039.232.232,0,0,0,.09.025.173.173,0,0,0,.058-.008l.019,0a.584.584,0,0,1,.084-.007.54.54,0,0,0,.111-.012l.022,0a.17.17,0,0,0,.055-.014.307.307,0,0,0,.047-.04.077.077,0,0,0,0-.074l.013,0a.052.052,0,0,1,.018,0s.008.016.01.025a.123.123,0,0,0,.01.029l.012.021.024-.014a.1.1,0,0,0,.044-.08.122.122,0,0,1,.013-.042.435.435,0,0,1,.028-.036.236.236,0,0,0,.049-.077c0-.015.009-.029.014-.045a.658.658,0,0,1,.021-.065.27.27,0,0,0,.015-.073.357.357,0,0,1,.008-.048.428.428,0,0,1,.014-.043.308.308,0,0,0,.02-.068.108.108,0,0,0-.019-.069.1.1,0,0,1-.013-.03c-.005-.03,0-.078.021-.086a.064.064,0,0,1,.023-.005.1.1,0,0,0,.045-.013.146.146,0,0,0,.039-.047,1.689,1.689,0,0,1,.164-.22l.022-.028a.224.224,0,0,1,.065-.068.089.089,0,0,1,.026-.006.1.1,0,0,0,.047-.015.09.09,0,0,0,.027-.059v0a.3.3,0,0,0,0-.033.153.153,0,0,1,.018-.077.06.06,0,0,1,.021,0,.123.123,0,0,0,.041-.009.232.232,0,0,0,.05-.041h0a.343.343,0,0,1,.06-.05l0,.011a.068.068,0,0,0,.016.028.116.116,0,0,0,.078.029.289.289,0,0,0,.133-.042.071.071,0,0,0,.029-.064l.033.02c.031.018.053.03.064.06a.093.093,0,0,1,0,.017.081.081,0,0,0,.017.042.153.153,0,0,0,.053.035l.014.007c.035.018.039.043.045.078v0c0,.005,0,.011,0,.016.009.047.02.1.111.1h0c.07,0,.1-.02.121-.072a.115.115,0,0,1,.035-.045.185.185,0,0,0,.04-.047.042.042,0,0,0,0-.055l-.008-.01c-.009-.013-.007-.023,0-.042a.161.161,0,0,1,.078-.08l.006,0c.048-.021.094-.041.07-.1a.138.138,0,0,0-.034-.044c-.019-.019-.027-.029-.023-.037a.206.206,0,0,1,.058-.067l.03-.027.01-.01c.011-.011.023-.023.034-.035a.151.151,0,0,0,.031-.083.131.131,0,0,1,.026-.072.3.3,0,0,0,.061-.107.087.087,0,0,0-.008-.057c-.007-.017-.013-.034,0-.045a.04.04,0,0,1,.013-.006.061.061,0,0,0,.04-.029.051.051,0,0,0-.011-.05.067.067,0,0,1-.007-.012c-.015-.044-.013-.076,0-.089a.135.135,0,0,1,.033-.018.057.057,0,0,0,.044-.072.033.033,0,0,1,0-.016.047.047,0,0,1,.015,0h.014a.154.154,0,0,0,.054-.008.275.275,0,0,0,.138-.185c0-.014.009-.028.014-.043a.483.483,0,0,0,.021-.07.455.455,0,0,0,0-.1q0-.012,0-.024c0-.007,0-.013,0-.018,0-.021,0-.028.018-.039l.042-.021c.059-.029.126-.062.131-.131a.249.249,0,0,0,0-.029.159.159,0,0,1,0-.031.293.293,0,0,1,.007-.033.2.2,0,0,0,.009-.064c0-.007,0-.014,0-.022,0-.03-.007-.063.017-.081a.238.238,0,0,1,.034-.019.113.113,0,0,0,.068-.065.291.291,0,0,0,.011-.083.363.363,0,0,1,0-.057l.007-.04v0a.9.9,0,0,1,.023-.1.264.264,0,0,1,.035-.067l.021-.034a.331.331,0,0,0,.028-.073c0-.013.008-.026.012-.039a.223.223,0,0,1,.053-.07l.015-.015a.21.21,0,0,0,.029-.042.157.157,0,0,1,.027-.038c.011-.01.038-.01.065-.01h.012a.188.188,0,0,0,.07-.009.265.265,0,0,0,.079-.058.413.413,0,0,1,.035-.03l.006,0a.37.37,0,0,0,.094-.086.081.081,0,0,0-.007-.079.087.087,0,0,1-.012-.041.1.1,0,0,1,.015-.039.088.088,0,0,0,.014-.076.219.219,0,0,0-.01-.022.1.1,0,0,1-.011-.031.081.081,0,0,1,0-.031.141.141,0,0,0,.005-.027.125.125,0,0,0-.065-.105.433.433,0,0,0-.131-.051c-.062-.015-.063-.039-.066-.085a.327.327,0,0,0,0-.042c0-.024-.007-.048-.009-.072s0-.049-.009-.073-.008-.05-.01-.075a.4.4,0,0,0-.075-.225c-.034-.041-.061-.081-.09-.123l-.011-.016-.021-.033a.394.394,0,0,0-.047-.067.108.108,0,0,0-.051-.029v-.006a.98.98,0,0,0-.04-.152c-.011-.033-.022-.068-.03-.1a.439.439,0,0,1-.011-.062.1.1,0,0,0-.016-.042l-.008-.015c-.007-.014,0-.023.018-.03a.09.09,0,0,1,.021,0l.025,0c.027-.009.046-.04.063-.067l.008-.013a.671.671,0,0,0,.083-.152.874.874,0,0,0,.03-.12.636.636,0,0,1,.045-.154,1.188,1.188,0,0,1,.169-.236l.007-.008.029-.035c.083-.1.173-.2.246-.285l.035-.04a1.38,1.38,0,0,0,.345-.532,1.5,1.5,0,0,0,.033-.308l0-.046c0-.062,0-.125,0-.188v0c0-.054,0-.109,0-.164,0-.079.01-.158.018-.236,0-.036.007-.073.01-.109s0-.083.006-.121a1.315,1.315,0,0,1,.017-.2c0-.025.01-.05.016-.075s.013-.059.019-.091a.413.413,0,0,0-.013-.163l0-.015a.256.256,0,0,1,.044-.228l.009-.011A.111.111,0,0,0,539.065,696.533Zm-17.528,4.789.006,0a.022.022,0,0,0,.032-.006v0a.061.061,0,0,0,.022.032.047.047,0,0,0,.032.012.108.108,0,0,0,.051-.018.274.274,0,0,1,.066-.023.162.162,0,0,0,.086-.04.118.118,0,0,0,.066.052.13.13,0,0,0,.071,0,.066.066,0,0,1,.043,0l.005,0a.115.115,0,0,0-.041,0l-.028.008-.019.006a.086.086,0,0,1-.063-.018l-.006,0a.106.106,0,0,0-.054-.015.205.205,0,0,0-.091.03l-.031.015a.114.114,0,0,1-.078.011l-.01,0a.062.062,0,0,0-.023-.008h-.006a.041.041,0,0,0-.021.005l-.014-.028a.023.023,0,0,0-.034,0l-.012.014a.182.182,0,0,0,.024-.049c0-.008.006-.016.009-.023a.122.122,0,0,0,0,.022C521.516,701.3,521.528,701.314,521.537,701.322Zm6.875,4.538-.013-.008-.005,0h0a.015.015,0,0,0,.008-.012s0-.006,0-.009a.063.063,0,0,1,.011.033Zm-.794.063s0,.006,0,.008a.05.05,0,0,1-.023,0h-.017a.034.034,0,0,0,.022-.031l.027,0,0,0A.013.013,0,0,0,527.618,705.923Zm-4.216-2.081s0-.009,0-.014a.047.047,0,0,0,.044,0,.035.035,0,0,1-.016.009.126.126,0,0,0-.032.014Zm.258.529c0,.008,0,.012,0,.014l.012.014a.142.142,0,0,0-.033-.016A.062.062,0,0,0,523.66,704.371Zm.053.068,0,0a.043.043,0,0,0,.02.008.086.086,0,0,0-.026.01.021.021,0,0,0,0-.007A.027.027,0,0,0,523.713,704.439ZM521.6,700.4a.311.311,0,0,0,.026-.042c.008,0,.014.01.014.014s-.008.008-.013.01A.077.077,0,0,0,521.6,700.4Zm-.027.034,0,0c-.012.018-.029.046-.047.046a.027.027,0,0,1-.013,0,.086.086,0,0,0,.052-.033l0,0Zm-.1.04.007-.018a.009.009,0,0,1,.005,0,.031.031,0,0,1,0,.008.011.011,0,0,0,0,.014.018.018,0,0,0,.009.007h0a.069.069,0,0,0-.019.014C521.472,700.49,521.474,700.483,521.476,700.476Zm.864,1.477-.018.013h0a.072.072,0,0,0-.008-.023A.074.074,0,0,0,522.34,701.954Zm5.921,3.9.03-.007a.161.161,0,0,1,.048-.008.2.2,0,0,0-.044.01l-.017.005a.207.207,0,0,1-.053.006h-.019A.46.46,0,0,0,528.261,705.852Zm5.081-.192a.027.027,0,0,0,.01.009l.009,0-.016.005,0,0h-.012A.053.053,0,0,0,533.342,705.66Zm1,.579.008.007.01.009a.093.093,0,0,1,0,.012v0c0,.009,0,.017.006.025,0-.01-.01-.02-.015-.029l-.008-.015v0Zm.637-.109a.1.1,0,0,0,.036.022c0,.008,0,.015-.006.021l0-.006,0-.007A.164.164,0,0,0,534.978,706.13Zm-12.15-3.237Zm.581,1.045Zm4.3,1.969h.008c.013,0,.018,0,.02.011A.061.061,0,0,0,527.7,705.906Zm-.2-6.974Zm-3.809,5.584c.017.01.018.015.018.016s-.009.008-.016.011l-.008,0,0,0a.031.031,0,0,0,0-.018A.05.05,0,0,0,523.7,704.516Z" transform="translate(-521.038 -693.664)"/></g><g transform="translate(12.813 0.891)"><g class="e" transform="translate(0 0)"><path class="f" d="M1043.079,279.392l-.227-.972-1-.084.853-.517-.227-.972.755.653.854-.517-.386.92.755.653-.994-.084Z" transform="translate(-1041.856 -276.848)"/></g></g><g transform="translate(12.813 24.534)"><g class="e" transform="translate(0 0)"><path class="f" d="M1043.079,279.392l-.227-.972-1-.084.853-.517-.227-.972.755.653.854-.517-.386.92.755.653-.994-.084Z" transform="translate(-1041.856 -276.848)"/></g></g><g transform="translate(24.431 12.712)"><g class="e" transform="translate(0 0)"><path class="f" d="M1043.079,279.392l-.227-.972-1-.084.853-.517-.227-.972.755.653.854-.517-.386.92.755.653-.994-.084Z" transform="translate(-1041.856 -276.848)"/></g></g><g transform="translate(0.788 12.712)"><g class="e" transform="translate(0 0)"><path class="f" d="M1043.079,279.392l-.227-.972-1-.084.853-.517-.227-.972.755.653.854-.517-.386.92.755.653-.994-.084Z" transform="translate(-1041.856 -276.848)"/></g></g></g><g transform="translate(86.176 93.193)"><path class="b" d="M5.382-49.562H11.2L16.636-34.7h.089L22.1-49.562h5.849v20.913H24.257V-45.456H24.2L17.847-28.649h-2.6L8.986-45.456H8.927v16.807H5.382Zm24.694,10.4a11.7,11.7,0,0,1,.842-4.534,9.955,9.955,0,0,1,2.334-3.441A10.332,10.332,0,0,1,36.8-49.326a12.674,12.674,0,0,1,4.475-.768,12.884,12.884,0,0,1,4.519.768,10.462,10.462,0,0,1,3.574,2.186A9.857,9.857,0,0,1,51.713-43.7a11.7,11.7,0,0,1,.842,4.534,11.541,11.541,0,0,1-.842,4.475A10.32,10.32,0,0,1,49.365-31.2a10.667,10.667,0,0,1-3.574,2.274,12.254,12.254,0,0,1-4.519.812A12.056,12.056,0,0,1,36.8-28.93,10.538,10.538,0,0,1,33.252-31.2a10.428,10.428,0,0,1-2.334-3.486A11.54,11.54,0,0,1,30.076-39.165Zm4.047,0a8.867,8.867,0,0,0,.517,3.087,7.189,7.189,0,0,0,1.477,2.437,6.784,6.784,0,0,0,2.274,1.61,7.172,7.172,0,0,0,2.91.576,7.277,7.277,0,0,0,2.924-.576,6.746,6.746,0,0,0,2.289-1.61,7.189,7.189,0,0,0,1.477-2.437,8.867,8.867,0,0,0,.517-3.087,8.568,8.568,0,0,0-.517-3.013A7.346,7.346,0,0,0,46.529-44.6a6.764,6.764,0,0,0-2.274-1.625,7.194,7.194,0,0,0-2.954-.591,7.091,7.091,0,0,0-2.939.591A6.8,6.8,0,0,0,36.1-44.6a7.346,7.346,0,0,0-1.462,2.422A8.568,8.568,0,0,0,34.123-39.165Zm17.6-10.4h4.165l5.76,16.1h.118l5.819-16.1h4.017L63.218-28.649H60Z" transform="translate(11.462 50.094)"/><path class="g" d="M13.847-28a4.37,4.37,0,0,0-.192-1.3,2.975,2.975,0,0,0-.606-1.093A2.956,2.956,0,0,0,12-31.147a3.666,3.666,0,0,0-1.492-.281,3.984,3.984,0,0,0-2.7.96A3.5,3.5,0,0,0,6.581-28Zm3.545,1.6v.473a3.807,3.807,0,0,1-.03.473H6.581a3.511,3.511,0,0,0,.4,1.4,3.571,3.571,0,0,0,.9,1.093,4.483,4.483,0,0,0,1.27.724,4.172,4.172,0,0,0,1.477.266,4.729,4.729,0,0,0,2.245-.487,4.2,4.2,0,0,0,1.506-1.344l2.363,1.89a7.1,7.1,0,0,1-6.085,2.836A8.656,8.656,0,0,1,7.614-19.6,7.18,7.18,0,0,1,5.207-21.06a6.59,6.59,0,0,1-1.6-2.319,7.993,7.993,0,0,1-.576-3.116,8.133,8.133,0,0,1,.576-3.116A7.094,7.094,0,0,1,5.192-32,7.069,7.069,0,0,1,7.57-33.54a7.957,7.957,0,0,1,2.969-.546,7.486,7.486,0,0,1,2.732.487,5.925,5.925,0,0,1,2.171,1.447,6.713,6.713,0,0,1,1.433,2.393A9.872,9.872,0,0,1,17.392-26.406Z" transform="translate(-3.036 40.935)"/></g></g></svg>