<svg xmlns="http://www.w3.org/2000/svg" width="926" height="59" viewBox="0 0 926 59"><defs><style>.a{fill:#f6ffeb;}.b{fill:#fff0cc;}.c{fill:#f1ffe0;}.d{fill:#dbeeff;}</style></defs><g transform="translate(-222 -80.5)"><rect class="a" width="59" height="92" transform="translate(315 139.5) rotate(-90)"/><path class="b" d="M59,0h0a0,0,0,0,1,0,0V92a0,0,0,0,1,0,0H0a0,0,0,0,1,0,0V59A59,59,0,0,1,59,0Z" transform="translate(315 139.5) rotate(-90)"/><rect class="b" width="92" height="59" transform="translate(499 139.5) rotate(180)"/><rect class="c" width="92" height="59" rx="29.5" transform="translate(499 139.5) rotate(180)"/><rect class="b" width="94" height="59" transform="translate(499 80.5)"/><path class="d" d="M59,0H94a0,0,0,0,1,0,0V59a0,0,0,0,1,0,0H0a0,0,0,0,1,0,0v0A59,59,0,0,1,59,0Z" transform="translate(499 80.5)"/><rect class="d" width="93" height="59" transform="translate(315 139.5) rotate(180)"/><path class="a" d="M0,0H34A59,59,0,0,1,93,59v0a0,0,0,0,1,0,0H0a0,0,0,0,1,0,0V0A0,0,0,0,1,0,0Z" transform="translate(315 139.5) rotate(180)"/><rect class="b" width="92" height="59" transform="translate(685 80.5)"/><path class="d" d="M0,0H33A59,59,0,0,1,92,59v0a0,0,0,0,1,0,0H0a0,0,0,0,1,0,0V0A0,0,0,0,1,0,0Z" transform="translate(685 80.5)"/><rect class="d" width="59" height="92" transform="translate(593 139.5) rotate(-90)"/><path class="b" d="M0,0H0A59,59,0,0,1,59,59V92a0,0,0,0,1,0,0H0a0,0,0,0,1,0,0V0A0,0,0,0,1,0,0Z" transform="translate(593 139.5) rotate(-90)"/><rect class="d" width="59" height="94" transform="translate(961 139.5) rotate(-90)"/><path class="a" d="M59,0h0a0,0,0,0,1,0,0V94a0,0,0,0,1,0,0H0a0,0,0,0,1,0,0V59A59,59,0,0,1,59,0Z" transform="translate(961 139.5) rotate(-90)"/><rect class="d" width="94" height="59" transform="translate(777 80.5)"/><path class="b" d="M59,0H94a0,0,0,0,1,0,0V59a0,0,0,0,1,0,0H0a0,0,0,0,1,0,0v0A59,59,0,0,1,59,0Z" transform="translate(777 80.5)"/><rect class="d" width="90" height="59" transform="translate(871 80.5)"/><path class="a" d="M0,0H31A59,59,0,0,1,90,59v0a0,0,0,0,1,0,0H0a0,0,0,0,1,0,0V0A0,0,0,0,1,0,0Z" transform="translate(871 80.5)"/><rect class="d" width="59" height="93" transform="translate(1148 80.5) rotate(90)"/><path class="b" d="M0,0H0A59,59,0,0,1,59,59V93a0,0,0,0,1,0,0H0a0,0,0,0,1,0,0V0A0,0,0,0,1,0,0Z" transform="translate(1148 80.5) rotate(90)"/></g></svg>