<svg xmlns="http://www.w3.org/2000/svg" width="69.606" height="64.979" viewBox="0 0 69.606 64.979"><defs><style>.a{fill:#4fd468;}.b{fill:#43a047;}.c{fill:#c4ffc6;}.d{fill:#88ff8d;}.e{fill:#8bc34a;}.f{fill:none;}.g{fill:#fff;}</style></defs><g transform="translate(0)"><path class="a" d="M32.49,64.979A32.489,32.489,0,1,1,64.979,32.49,32.485,32.485,0,0,1,32.49,64.979Z"/><path class="b" d="M0,0V64.979A32.486,32.486,0,0,0,32.489,32.49,32.472,32.472,0,0,0,0,0Z" transform="translate(32.49)"/><path class="c" d="M25.055,0C15.6,0,6.588,4.133,0,13.068a32.487,32.487,0,0,0,50.341-.283C47.145,9.606,39.947,0,25.055,0Z" transform="translate(7.435 40.105)"/><path class="d" d="M25.286,12.785A32.4,32.4,0,0,1,0,24.874V0C14.893,0,22.09,9.607,25.286,12.785Z" transform="translate(32.49 40.105)"/><path class="c" d="M11.422,26.652A11.435,11.435,0,0,1,0,15.23V11.422a11.422,11.422,0,1,1,22.844,0V15.23A11.435,11.435,0,0,1,11.422,26.652Z" transform="translate(21.068 7.742)"/><path class="d" d="M0,0V26.652A11.435,11.435,0,0,0,11.422,15.23V11.422A11.435,11.435,0,0,0,0,0Z" transform="translate(32.49 7.742)"/></g><g transform="translate(43.497 32.33)"><ellipse class="e" cx="13" cy="12.5" rx="13" ry="12.5" transform="translate(0.109 0)"/><g transform="translate(4.141 3.508)"><path class="f" d="M0,0H17.711V17.711H0Z"/><path class="g" d="M3,13.67v2.243a.365.365,0,0,0,.369.369H5.612a.346.346,0,0,0,.258-.111l8.058-8.051L11.162,5.353,3.111,13.4A.362.362,0,0,0,3,13.67ZM16.069,5.981a.735.735,0,0,0,0-1.04L14.342,3.213a.735.735,0,0,0-1.04,0l-1.35,1.35,2.767,2.767,1.35-1.35Z" transform="translate(-0.786 -0.786)"/></g></g></svg>