<svg xmlns="http://www.w3.org/2000/svg" width="120" height="155.041" viewBox="0 0 120 155.041"><defs><style>.a,.c{fill:#bbb;}.b{fill:none;}.c{fill-rule:evenodd;}</style></defs><g transform="translate(-12.968 -2.5)"><g transform="translate(12.641 2.5)"><path class="a" d="M52.734,43.067a6.982,6.982,0,0,0,7.034-7.034V9.534a7.034,7.034,0,0,0-14.068,0V35.87A7.122,7.122,0,0,0,52.734,43.067Z" transform="translate(7.593 -2.5)"/><path class="a" d="M31.178,41.57a7.053,7.053,0,0,0,6.543,4.417A8.308,8.308,0,0,0,40.5,45.5a7.023,7.023,0,0,0,3.762-9.324L34.123,11.8A7.109,7.109,0,1,0,21.036,17.36Z" transform="translate(-8.474 0.633)"/><path class="a" d="M69.026,45.488a7.641,7.641,0,0,0,2.781.491,7.053,7.053,0,0,0,6.543-4.417L88.492,17.19a7.217,7.217,0,0,0-3.762-9.324,7.587,7.587,0,0,0-9.487,4.089L65.1,36.328A7.052,7.052,0,0,0,69.026,45.488Z" transform="translate(19.599 0.64)"/><g transform="translate(0 28.198)"><g transform="translate(0 0)"><rect class="b" width="120" height="127" transform="translate(0.328 -0.157)"/><rect class="b" width="120" height="127" transform="translate(0.328 -0.157)"/></g><g transform="translate(2.368 21.937)"><g transform="translate(82.566 48.107)"><path class="c" d="M16.67,13.13c7.219,4.9,12.277,11.539,12.277,20.391V49.329H44.754a5.285,5.285,0,0,0,5.269-5.269V33.521C50.023,22.035,31.213,15.238,16.67,13.13Z" transform="translate(-16.67 -13.13)"/></g><g transform="translate(21.076)"><circle class="a" cx="21.076" cy="21.076" r="21.076"/></g><g transform="translate(66.759)"><path class="c" d="M20.678,46.153A21.076,21.076,0,0,0,20.678,4,22.016,22.016,0,0,0,13.67,5.265a31.508,31.508,0,0,1,7.008,19.812A31.508,31.508,0,0,1,13.67,44.888,22.015,22.015,0,0,0,20.678,46.153Z" transform="translate(-13.67 -4)"/></g><g transform="translate(0 47.422)"><path class="c" d="M43.153,13C29.084,13,1,20.061,1,34.076V44.614a5.285,5.285,0,0,0,5.269,5.269H80.036a5.285,5.285,0,0,0,5.269-5.269V34.076C85.305,20.061,57.221,13,43.153,13Z" transform="translate(-1 -13)"/></g></g></g></g></g></svg>