<svg xmlns="http://www.w3.org/2000/svg" xmlns:xlink="http://www.w3.org/1999/xlink" width="43.755" height="48" viewBox="0 0 43.755 48"><defs><style>.a{fill:url(#a);}.b{fill:#fff;}</style><linearGradient id="a" x1="0.5" x2="0.5" y2="1" gradientUnits="objectBoundingBox"><stop offset="0" stop-color="#ed765e"/><stop offset="1" stop-color="#fea858"/></linearGradient></defs><g transform="translate(-624.01 -490.53)"><path class="a" d="M624.01,506.609V522.45a8.159,8.159,0,0,0,4.08,7.066l13.719,7.92a8.159,8.159,0,0,0,8.159,0l13.719-7.92a8.159,8.159,0,0,0,4.08-7.066V506.609a8.159,8.159,0,0,0-4.08-7.066l-13.719-7.921a8.159,8.159,0,0,0-8.159,0l-13.719,7.921A8.159,8.159,0,0,0,624.01,506.609Z" transform="translate(0 0)"/><g transform="translate(632.172 500.814)"><path class="b" d="M1151.1,1164.811a13.676,13.676,0,1,1,5.339-1.078A13.628,13.628,0,0,1,1151.1,1164.811Zm0-26.238a12.523,12.523,0,1,0,12.523,12.523A12.537,12.537,0,0,0,1151.1,1138.573Z" transform="translate(-1137.38 -1137.38)"/></g><circle class="b" cx="11.814" cy="11.814" r="11.814" transform="translate(634.074 502.716)"/><g transform="translate(637.924 506.841)"><g transform="translate(0 0)"><g transform="translate(0 6.377)"><rect class="a" width="15.928" height="1.264"/><rect class="a" width="15.928" height="1.264" transform="translate(0 2.418)"/></g><g transform="translate(1.686)"><path class="a" d="M1620.517,1531.817h-3.628l-5.719-9.977-3.089-5.39-.006-.01h3.095v.01h.539l5.637,9.835,3.142,5.482Z" transform="translate(-1608.028 -1516.44)"/><rect class="a" width="3.142" height="0.01"/><rect class="a" width="3.142" height="15.35" transform="translate(9.318)"/><rect class="a" width="3.142" height="15.35"/></g></g></g></g></svg>