<svg xmlns="http://www.w3.org/2000/svg" xmlns:xlink="http://www.w3.org/1999/xlink" width="229.329" height="223.782" viewBox="0 0 229.329 223.782"><defs><style>.a{fill:rgba(139,195,74,0.15);}.b{fill:#7cb832;}.c{fill:#fff;}.d{fill:#8bcc36;}.e{filter:url(#e);}.f{filter:url(#c);}.g{filter:url(#a);}</style><filter id="a" x="33.471" y="123.312" width="88.144" height="100.47" filterUnits="userSpaceOnUse"><feOffset dy="3" input="SourceAlpha"/><feGaussianBlur stdDeviation="3" result="b"/><feFlood flood-opacity="0.161"/><feComposite operator="in" in2="b"/><feComposite in="SourceGraphic"/></filter><filter id="c" x="106.566" y="123.312" width="88.144" height="100.47" filterUnits="userSpaceOnUse"><feOffset dy="3" input="SourceAlpha"/><feGaussianBlur stdDeviation="3" result="d"/><feFlood flood-opacity="0.161"/><feComposite operator="in" in2="d"/><feComposite in="SourceGraphic"/></filter><filter id="e" x="28.433" y="0" width="171.315" height="170.257" filterUnits="userSpaceOnUse"><feOffset dy="3" input="SourceAlpha"/><feGaussianBlur stdDeviation="3" result="f"/><feFlood flood-opacity="0.161"/><feComposite operator="in" in2="f"/><feComposite in="SourceGraphic"/></filter></defs><g transform="translate(-333.857 -97.04)"><g transform="translate(333.857 116.712)"><g transform="translate(0 0)"><path class="a" d="M340.736,203.237a47.137,47.137,0,0,1,6.028-8.9q1.064-1.34,2.234-2.6c.351-.378.7-.749,1.044-1.12A45.24,45.24,0,0,1,366.175,179.5q.295-.119.593-.234a68.86,68.86,0,0,1,18.06-4.545,183.5,183.5,0,0,1,19.577-1.326q1.285-.035,2.569-.144a62.223,62.223,0,0,0,7.849-1c10.167-1.743,18.283-6.949,25.331-13.557a124.016,124.016,0,0,0,9.913-10.663c10.7-15.791,26.65-30.284,47.7-29.324,1.82.043,3.519.116,5.339.159a74.335,74.335,0,0,1,9.106,1.32c1.659.451,3.29.787,4.949,1.238a61.107,61.107,0,0,1,17.62,8.314,33.078,33.078,0,0,1,4.113,3.164A49.781,49.781,0,0,1,547,141.464c9.771,12.826,6.161,29.193,5.1,44.318-.241,4.973,1.284,9.757,3.161,14.24,1.83,4.183,4.151,8.1,6.373,12.279,8.943,16.961,2.432,39.078-16.584,47.2a32.543,32.543,0,0,1-7.924,2.565,47.443,47.443,0,0,1-12.51.132c-11.537-1.213-23.235-5.825-34.793-1.768a28.9,28.9,0,0,0-9.307,5.1c-4.343,3.494-8.6,7.08-12.851,10.646-2.2,2-4.5,3.932-6.876,5.762s-4.842,3.56-7.381,5.167c-15.35,9.67-33.486,17.01-51.16,15.523C334.385,296.923,329.97,225.64,340.736,203.237Z" transform="translate(-336.261 -118.657)"/><g transform="translate(62.266 19.26)"><path class="a" d="M2273.463,2005.486c-.747-5.832,5.714-12.442,11.545-13.19a10.645,10.645,0,0,1,2.707,21.118C2281.884,2014.162,2274.21,2011.318,2273.463,2005.486Z" transform="translate(-2178.935 -1859.88)"/><g transform="translate(0 0)"><circle class="a" cx="10.489" cy="10.489" r="10.489" transform="translate(0 12.374) rotate(-22.793)"/><circle class="a" cx="6.748" cy="6.748" r="6.748" transform="translate(26.365 13.455) rotate(-85.533)"/></g></g></g></g><g transform="translate(91.295 -101.667)"><g transform="translate(279.996 204.707)"><g class="g" transform="matrix(1, 0, 0, 1, -37.43, -6)"><path class="b" d="M344.567,641.078l-19.119-27.467-30.994,12.623,20.031-67.626L364.6,573.452Z" transform="translate(-251.98 -429.3)"/></g><g class="f" transform="matrix(1, 0, 0, 1, -37.43, -6)"><path class="b" d="M524.266,641.078l19.119-27.467,30.994,12.623-20.031-67.626-50.113,14.844Z" transform="translate(-388.67 -429.3)"/></g><circle class="c" cx="70.558" cy="70.558" r="70.558" transform="translate(6.099 5.57)"/><g class="e" transform="matrix(1, 0, 0, 1, -37.43, -6)"><path class="d" d="M428.815,289.6c.357-2.951,4.5-5.72,4.5-8.766s-4.139-5.815-4.5-8.766c-.361-3.015,3-6.689,2.284-9.584-.723-2.943-5.4-4.635-6.462-7.431-1.072-2.828,1.3-7.2-.091-9.85-1.406-2.669-6.359-3.193-8.063-5.66s-.457-7.292-2.451-9.541-6.927-1.581-9.179-3.575-2.169-6.97-4.647-8.686-7.1.123-9.767-1.283c-2.653-1.39-3.769-6.244-6.593-7.32-2.8-1.056-6.848,1.831-9.791,1.108-2.9-.711-5.144-5.155-8.162-5.517-2.951-.354-6.192,3.42-9.238,3.42s-6.288-3.774-9.239-3.42c-3.019.361-5.267,4.806-8.162,5.517-2.943.723-6.995-2.164-9.791-1.108-2.824,1.072-3.94,5.926-6.593,7.32-2.669,1.406-7.3-.425-9.767,1.283s-2.4,6.693-4.647,8.686-7.185,1.323-9.179,3.571-.734,7.066-2.446,9.545-6.661,2.987-8.067,5.66c-1.394,2.65.981,7.022-.091,9.85-1.061,2.792-5.739,4.489-6.462,7.431-.715,2.9,2.645,6.569,2.284,9.584-.357,2.951-4.5,5.72-4.5,8.766s4.139,5.815,4.5,8.766c.361,3.015-3,6.689-2.284,9.584.723,2.943,5.4,4.635,6.462,7.431,1.072,2.828-1.3,7.2.091,9.85,1.406,2.669,6.359,3.193,8.063,5.66s.457,7.292,2.451,9.541,6.927,1.581,9.179,3.575,2.169,6.971,4.647,8.687,7.1-.123,9.767,1.283c2.653,1.39,3.769,6.244,6.593,7.32,2.8,1.056,6.848-1.831,9.791-1.108,2.9.711,5.144,5.155,8.162,5.517,2.951.354,6.192-3.42,9.239-3.42s6.288,3.774,9.238,3.42c3.019-.361,5.267-4.806,8.162-5.517,2.943-.723,6.995,2.164,9.791,1.108,2.824-1.072,3.94-5.926,6.593-7.32,2.669-1.406,7.3.425,9.767-1.283s2.4-6.692,4.647-8.687,7.185-1.323,9.179-3.571.735-7.066,2.447-9.544,6.661-2.987,8.067-5.66c1.394-2.649-.981-7.022.091-9.85,1.061-2.792,5.739-4.488,6.462-7.431C431.814,296.29,428.453,292.616,428.815,289.6Zm-72.161,58.557a67.323,67.323,0,1,1,67.323-67.323A67.4,67.4,0,0,1,356.653,348.159Z" transform="translate(-242.56 -198.71)"/></g><circle class="d" cx="57.926" cy="57.926" r="57.926" transform="translate(18.731 18.202)"/><g transform="translate(12.825 12.297)"><path class="b" d="M380.636,240a63.832,63.832,0,1,0,63.832,63.832A63.906,63.906,0,0,0,380.636,240Zm0,125.028a61.2,61.2,0,1,1,61.2-61.2A61.266,61.266,0,0,1,380.636,365.026Z" transform="translate(-316.804 -239.998)"/></g><path class="c" d="M438.651,389.406,467.2,360.86a3.44,3.44,0,0,0,0-4.866l-8.023-8.024a3.441,3.441,0,0,0-4.866,0l-28.546,28.546-16.755-16.755a3.441,3.441,0,0,0-4.866,0l-8.023,8.024a3.44,3.44,0,0,0,0,4.866l27.211,27.211a3.441,3.441,0,0,0,4.866,0l10.457-10.457Z" transform="translate(-355 -297.396)"/></g></g></g></svg>