<svg xmlns="http://www.w3.org/2000/svg" xmlns:xlink="http://www.w3.org/1999/xlink" width="48" height="48" viewBox="0 0 48 48"><defs><style>.a{fill:none;}.b{fill:url(#a);}</style><linearGradient id="a" x1="0.5" x2="0.5" y2="1" gradientUnits="objectBoundingBox"><stop offset="0" stop-color="#4ca9df"/><stop offset="1" stop-color="#292e91"/></linearGradient></defs><rect class="a" width="48" height="48"/><path class="b" d="M37.82,13.82,28.16,4.16A4,4,0,0,0,25.34,3H7A4.012,4.012,0,0,0,3,7V35a4.012,4.012,0,0,0,4,4H35a4.012,4.012,0,0,0,4-4V16.66A4.012,4.012,0,0,0,37.82,13.82ZM11,11H25v4H11ZM31,31H11V27H31Zm0-8H11V19H31Z" transform="translate(3 3)"/></svg>